<?xml version="1.0" encoding="UTF-8"?>
<svg version="1.1" xmlns="http://www.w3.org/2000/svg" width="1024" height="1024">
<path d="M0 0 C12.21 0 24.42 0 37 0 C37 0.66 37 1.32 37 2 C39.97 2 42.94 2 46 2 C46.33 1.34 46.66 0.68 47 0 C47 0.99 47 1.98 47 3 C47.58773193 2.97897217 48.17546387 2.95794434 48.78100586 2.9362793 C77.30652774 2.36995353 110.17476907 14.41793151 135 28 C135.71462402 28.39010254 136.42924805 28.78020508 137.16552734 29.18212891 C152.01951219 37.40563936 166.15278104 46.88453783 179 58 C179.78117188 58.6703125 180.56234375 59.340625 181.3671875 60.03125 C192.0599545 69.42686166 202.68963196 79.40325915 211 91 C211.82044727 92.07220659 212.64360713 93.14234032 213.46875 94.2109375 C225.27305735 109.65836739 235.02809149 126.92436863 242.64453125 144.81640625 C243.88737451 147.8748585 243.88737451 147.8748585 245.1875 150.1875 C246 152 246 152 246 156 C246.66 156.33 247.32 156.66 248 157 C248.5625 158.85546875 248.5625 158.85546875 249 161.1875 C249.71169037 164.91752004 250.75370541 168.41171017 252 172 C252.72888428 172.0501123 253.45776855 172.10022461 254.20874023 172.15185547 C293.08559639 174.85244515 293.08559639 174.85244515 302 178 C303.50459379 178.44148108 305.01133756 178.87566556 306.51953125 179.3046875 C317.15246883 182.41825001 327.19519806 186.19642739 337.1875 191 C338.70790894 191.72872314 338.70790894 191.72872314 340.2590332 192.47216797 C349.74772391 197.1514155 358.67400258 202.63416335 366.9375 209.25 C367.51886719 209.71180664 368.10023438 210.17361328 368.69921875 210.64941406 C376.5009452 216.9204757 384.38029186 223.49924585 390.62109375 231.3671875 C392.09636738 233.16746076 392.09636738 233.16746076 394.33984375 235.28125 C415.70131934 257.11324267 428.79980938 288.59823917 435 318 C435.17644043 318.81436523 435.35288086 319.62873047 435.53466797 320.46777344 C445.15086002 366.69030212 432.98780619 415.02483419 407.6328125 454.1171875 C400.43113824 464.91163129 391.94963945 474.63409825 383 484 C382.154375 484.886875 381.30875 485.77375 380.4375 486.6875 C374.96681985 492.29494715 369.27651674 497.31565707 363 502 C362.41395996 502.44069824 361.82791992 502.88139648 361.22412109 503.33544922 C315.97215316 537.1228225 259.87297604 550.15317594 204.04248047 542.86669922 C198.98747442 542.08199271 193.99517133 541.09948065 189 540 C188.03578125 539.79632812 187.0715625 539.59265625 186.078125 539.3828125 C142.98456336 530.04971493 108.12771967 506.27594517 77 476 C76.38592285 475.40348633 75.7718457 474.80697266 75.13916016 474.19238281 C71.68220832 470.79006804 68.50748947 467.31547171 65.5 463.5 C62.95506068 460.33602139 60.4247901 457.31646455 57.5 454.5 C53.70631179 450.84681876 50.5134499 446.76377028 47.22265625 442.66015625 C44.72776616 439.67418059 42.06517002 436.98334362 39.21484375 434.33984375 C38 433 38 433 38 431 C37.34 431 36.68 431 36 431 C34.31267723 429.01739574 32.64633943 427.0167658 31 425 C30.34 424.67 29.68 424.34 29 424 C28.57203125 423.27425781 28.1440625 422.54851562 27.703125 421.80078125 C25.73378434 418.56220957 23.33995192 415.92585299 20.75 413.1875 C19.75451116 412.11913878 18.75971822 411.05012869 17.765625 409.98046875 C17.28673828 409.46661621 16.80785156 408.95276367 16.31445312 408.42333984 C14.67329263 406.64622884 13.08114655 404.83059929 11.5 403 C9.02431383 400.13655575 6.47771531 397.34873773 3.90014648 394.57666016 C-11.58314175 377.8864456 -11.58314175 377.8864456 -11.31640625 364.81640625 C-10.53004203 357.81679383 -7.39116277 352.49263564 -2 348 C5.55540035 342.56011175 11.83735265 342.26861352 21 343 C29.74281095 345.49021241 35.26000293 353.28617266 41.25 359.6875 C41.91531738 360.39793457 42.58063477 361.10836914 43.26611328 361.84033203 C48.24481082 367.16781695 53.14873065 372.55620921 58 378 C59.54110287 379.70884196 61.08277686 381.41716901 62.625 383.125 C65.23321162 386.02101428 67.8206549 388.93142136 70.375 391.875 C73.82851561 395.84252724 77.3900394 399.7084764 80.95263672 403.57763672 C84.06585044 406.9644456 87.11244538 410.39897544 90.125 413.875 C92.54550142 416.61823494 95.02204178 419.30881243 97.5 422 C100.57815921 425.3437503 103.64083421 428.6966793 106.625 432.125 C107.16898438 432.74890625 107.71296875 433.3728125 108.2734375 434.015625 C109.53126205 435.46126951 110.78606412 436.90954546 112.0390625 438.359375 C119.69663239 447.07222838 127.96915101 454.71780328 137.375 461.5 C137.95789795 461.92152344 138.5407959 462.34304688 139.14135742 462.77734375 C142.33221618 465.02073674 145.39646725 466.56354021 149 468 C149.44988281 468.45761719 149.89976562 468.91523437 150.36328125 469.38671875 C171.07680301 489.80362684 212.21829945 491.38088484 238.95758057 491.23348999 C249.20884614 491.135153 259.01602207 490.44815321 269 488 C269.83063965 487.80132324 270.6612793 487.60264648 271.51708984 487.39794922 C306.14299495 478.88338239 339.33928871 459.49594773 359 429 C359.66257812 427.99710938 360.32515625 426.99421875 361.0078125 425.9609375 C368.15739849 414.78801034 373.4592368 403.47203045 377.3125 390.8125 C377.55500488 390.0177124 377.79750977 389.2229248 378.04736328 388.40405273 C381.32208112 377.10222617 382.33109885 365.98155443 382.625 354.25 C382.66367187 352.96867187 382.70234375 351.68734375 382.7421875 350.3671875 C382.83538936 347.2449253 382.9211969 344.12265307 383 341 C382.34 340.67 381.68 340.34 381 340 C380.76171875 337.62109375 380.76171875 337.62109375 380.6875 334.4375 C380.15872695 326.09564932 377.79624198 318.80999553 375 311 C374.3503125 309.14181641 374.3503125 309.14181641 373.6875 307.24609375 C368.11566614 292.31927748 359.9016965 277.39448265 348.24609375 266.3359375 C347 265 347 265 347 263 C346.43023438 262.75378906 345.86046875 262.50757813 345.2734375 262.25390625 C342.62495777 260.79314681 340.79852724 259.04055451 338.625 256.9375 C311.99891262 232.68249485 278.69475963 227.54437095 244.01220703 227.56420898 C217.32826279 227.53138471 217.32826279 227.53138471 207.69921875 218.1171875 C201.1275172 209.92899845 199.23569168 198.16950911 196.58569336 188.24853516 C194.9314526 182.08662061 193.04310302 176.1216541 190.75415039 170.16430664 C190 168 190 168 190 166 C189.34 165.67 188.68 165.34 188 165 C187.33081055 163.28076172 187.33081055 163.28076172 186.69921875 161.0546875 C185.01081678 155.70720024 182.54909927 151.00391985 179.8125 146.125 C179.07676758 144.80520142 179.07676758 144.80520142 178.32617188 143.45874023 C174.64314311 136.94543627 170.72247225 130.81702657 166 125 C165.58250488 124.4838916 165.16500977 123.9677832 164.73486328 123.43603516 C133.93019705 85.57635714 89.85723629 62.76234356 41.44384766 57.18310547 C-8.51485374 53.43994602 -59.34555095 66.74491921 -97.9921875 99.5390625 C-99.49222804 100.89532919 -100.97680539 102.26925294 -102.43359375 103.671875 C-104 105 -104 105 -106 105 C-106 105.66 -106 106.32 -106 107 C-106.969375 107.804375 -107.93875 108.60875 -108.9375 109.4375 C-114.03661557 113.67479322 -117.93443081 118.79442323 -122 124 C-123.0828125 125.34191406 -123.0828125 125.34191406 -124.1875 126.7109375 C-141.47292719 148.74985717 -152.48364385 175.1808205 -159.0625 202.25 C-161.34066118 211.11059284 -165.39341313 217.82752093 -173 223 C-179.82032288 226.25951174 -186.59392427 227.0562324 -194.0793457 227.29003906 C-210.81723479 227.82251785 -226.20060398 230.46584692 -242 236 C-242.88816406 236.29519531 -243.77632812 236.59039062 -244.69140625 236.89453125 C-259.26932059 242.15410825 -274.32352825 252.40715413 -284.6953125 263.78515625 C-286 265 -286 265 -288 265 C-288.26425781 265.58523438 -288.52851563 266.17046875 -288.80078125 266.7734375 C-290.04431147 269.08227211 -291.40568775 270.70863442 -293.1875 272.625 C-308.75168087 290.20675987 -320.47176592 314.50229506 -323 338 C-323.10828125 338.9796875 -323.2165625 339.959375 -323.328125 340.96875 C-326.79104334 377.05600425 -316.69943753 410.97830894 -293.94140625 439.15356445 C-273.23670707 464.0629892 -243.71030776 479.57704666 -212 485 C-210.98164063 485.17563477 -209.96328125 485.35126953 -208.9140625 485.53222656 C-204.05638327 486.11277256 -199.27439047 486.17378604 -194.38671875 486.2109375 C-192.31314314 486.23900589 -190.23957554 486.26767035 -188.16601562 486.296875 C-184.92749254 486.33805825 -181.68911888 486.37498681 -178.45043945 486.40136719 C-175.30389374 486.42915972 -172.15800611 486.47502321 -169.01171875 486.5234375 C-168.05722336 486.52669037 -167.10272797 486.52994324 -166.11930847 486.53329468 C-156.13891219 486.71347688 -148.17812186 488.71497539 -140.91796875 495.76953125 C-135.88408296 501.6236021 -134.28873651 507.56480973 -134.62109375 515.23046875 C-135.62252884 522.55023655 -138.45722958 528.5449472 -143.94921875 533.53125 C-153.84158014 540.61606501 -165.86962622 540.19273724 -177.51855469 540.55761719 C-179.62726091 540.62507232 -181.73542479 540.7028736 -183.84375 540.78125 C-185.2005002 540.82614873 -186.55727065 540.87044047 -187.9140625 540.9140625 C-189.7386499 540.9752124 -189.7386499 540.9752124 -191.60009766 541.03759766 C-194.85690958 541.00158236 -197.80465363 540.59262134 -201 540 C-203.12411996 539.93539781 -205.25002905 539.91388921 -207.375 539.9375 C-208.96441406 539.95103516 -208.96441406 539.95103516 -210.5859375 539.96484375 C-211.38257813 539.97644531 -212.17921875 539.98804688 -213 540 C-213 539.34 -213 538.68 -213 538 C-214.02480469 537.97873047 -214.02480469 537.97873047 -215.0703125 537.95703125 C-259.60446637 535.84991655 -301.47811062 510.51622271 -331.45214844 478.70458984 C-335.50080317 474.24596093 -339.17880467 469.50777507 -342.76074219 464.67041016 C-343.89906988 463.13604489 -345.06170108 461.6197886 -346.2265625 460.10546875 C-374.72468275 421.39983997 -384.46363159 372.44484094 -377.62548828 325.42480469 C-374.64359228 306.95512159 -368.97593933 289.23826749 -359.98974609 272.81152344 C-359.04134455 271.07567256 -358.12343806 269.32326496 -357.20703125 267.5703125 C-348.6160199 251.70716574 -337.61549111 237.71206654 -324.47265625 225.39672852 C-323.12685257 224.12031226 -321.82448978 222.79849114 -320.52734375 221.47265625 C-291.64123364 193.21159334 -249.47907301 174.30157791 -209 173 C-208.40527993 169.56438568 -207.89268951 166.15785919 -207.5625 162.6875 C-207.376875 161.470625 -207.19125 160.25375 -207 159 C-206.34 158.67 -205.68 158.34 -205 158 C-204.1347974 156.29467251 -204.1347974 156.29467251 -203.40625 154.1953125 C-203.10299805 153.39311279 -202.79974609 152.59091309 -202.48730469 151.7644043 C-201.99858887 150.45789917 -201.99858887 150.45789917 -201.5 149.125 C-197.45163455 138.63510462 -192.47263563 128.80977633 -187 119 C-186.63922363 118.34990967 -186.27844727 117.69981934 -185.90673828 117.0300293 C-184.21831763 114.0247357 -182.5049853 111.14898435 -180.375 108.4375 C-177.99564743 105.35271124 -175.74018958 102.20205573 -173.51733398 99.00268555 C-168.4861604 91.79660278 -163.02344542 85.41139614 -157 79 C-155.80574939 77.63085913 -154.6176203 76.25633896 -153.4375 74.875 C-133.91762668 52.53407272 -107.8338273 35.33927521 -81 23 C-79.92443848 22.5035498 -79.92443848 22.5035498 -78.82714844 21.99707031 C-58.60967549 12.79129287 -37.81190836 7.31457914 -15.96679688 3.52490234 C-13.92815133 3.16421374 -11.89303209 2.78318721 -9.86132812 2.38525391 C-8.87068359 2.19237793 -7.88003906 1.99950195 -6.859375 1.80078125 C-5.97217773 1.62329346 -5.08498047 1.44580566 -4.17089844 1.26293945 C-2 1 -2 1 0 2 C0 1.34 0 0.68 0 0 Z M1 1 C1 1.33 1 1.66 1 2 C2.98 2 4.96 2 7 2 C7 1.67 7 1.34 7 1 C5.02 1 3.04 1 1 1 Z " fill="#51CDFE" transform="translate(487,192)"/>
<path d="M0 0 C25.97361453 -0.99439566 50.04669146 9.443367 69.36328125 26.15234375 C70.04777344 26.735 70.73226562 27.31765625 71.4375 27.91796875 C86.74027039 42.04360295 98.44040608 65.81584357 99.48803711 86.63110352 C100.22217507 113.14011617 95.11123904 135.57158566 78.61328125 156.83984375 C77.88685425 157.77775757 77.88685425 157.77775757 77.14575195 158.73461914 C75.93562712 160.2491325 74.65487774 161.70668428 73.36328125 163.15234375 C72.70328125 163.15234375 72.04328125 163.15234375 71.36328125 163.15234375 C71.12867188 163.72597656 70.8940625 164.29960937 70.65234375 164.890625 C63.76692231 176.9714099 44.78569908 184.97702591 32.01074219 188.68139648 C30.13407339 189.19353025 28.24882609 189.67392193 26.36328125 190.15234375 C25.42226563 190.39726562 24.48125 190.6421875 23.51171875 190.89453125 C10.92721181 193.66996631 -2.6008053 193.700974 -13.94921875 187.27734375 C-20.04311184 182.45891666 -23.25560161 176.49810629 -24.51171875 168.83984375 C-25.09776627 161.67297095 -22.76479502 154.28168944 -18.23046875 148.6796875 C-11.4198905 142.15288334 -2.9060253 141.41621841 6.02856445 140.23852539 C15.45130535 138.96369959 22.39305533 136.43097341 29.76953125 130.32421875 C31.36328125 129.15234375 31.36328125 129.15234375 33.36328125 129.15234375 C33.76740234 128.28996094 33.76740234 128.28996094 34.1796875 127.41015625 C35.38562189 125.10972694 36.77729753 123.12843325 38.30078125 121.02734375 C44.99072484 110.95153628 45.84228949 99.8227616 43.82421875 87.9921875 C42.24333527 81.67733974 40.04258504 75.83164754 35.36328125 71.15234375 C34.64140625 70.22421875 33.91953125 69.29609375 33.17578125 68.33984375 C26.60926834 60.51712837 17.33579362 56.74305124 7.36328125 55.15234375 C-5.9792978 54.23216588 -18.28127899 56.76133635 -28.76171875 65.33984375 C-38.21721754 74.09081518 -42.63048411 85.42080361 -43.63671875 98.15234375 C-43.78060865 103.10726602 -43.77015949 108.06125115 -43.7612915 113.01779175 C-43.76227869 114.53549615 -43.7637166 116.0532003 -43.76556468 117.5709039 C-43.76861557 120.86246142 -43.76852222 124.15399871 -43.76600838 127.44555664 C-43.76193786 132.80193614 -43.76472327 138.1582999 -43.76835632 143.51467896 C-43.77244259 150.28412618 -43.77468586 157.05356986 -43.77477232 163.82301833 C-43.77497527 177.12463283 -43.78744764 190.42621098 -43.80438232 203.72781372 C-43.80698804 205.82323292 -43.80958685 207.91865213 -43.81217885 210.01407135 C-43.81611715 213.18942746 -43.8200637 216.36478357 -43.82404007 219.54013964 C-43.83897851 231.50446016 -43.85260745 243.46878178 -43.86474609 255.43310547 C-43.86585965 256.52650459 -43.86697322 257.61990371 -43.86812052 258.74643613 C-43.88570091 276.47039261 -43.88856412 294.19432626 -43.88689569 311.91829 C-43.88561646 330.12313052 -43.90335525 348.3278861 -43.93791366 366.53269398 C-43.95855715 377.75756997 -43.96390595 388.98224249 -43.94958535 400.20712925 C-43.94112326 407.89945627 -43.95086573 415.5916251 -43.97489485 423.28391872 C-43.98819461 427.72067435 -43.99340349 432.15705048 -43.97677422 436.59380341 C-43.96170601 440.65902866 -43.96979152 444.72353964 -43.99594375 448.78870262 C-44.00134796 450.25565105 -43.99839565 451.72266036 -43.98602679 453.1895666 C-43.91142176 462.74212345 -44.69465081 470.76103317 -51.37765622 478.05153549 C-57.69319097 483.99698685 -65.10037404 486.13890069 -73.63671875 486.15234375 C-80.53801568 485.45842907 -86.67845233 482.32658979 -91.40234375 477.2578125 C-96.04600009 471.36307399 -97.88468489 466.07777189 -97.89398766 458.51132488 C-97.89749373 457.86622458 -97.9009998 457.22112428 -97.90461212 456.55647549 C-97.91390545 454.39788981 -97.90900821 452.23957515 -97.90414429 450.08097839 C-97.90788165 448.51636467 -97.91248351 446.95175281 -97.91787493 445.38714391 C-97.9301108 441.0894994 -97.92984374 436.7919327 -97.92748618 432.49427474 C-97.92707814 427.8580077 -97.93811631 423.22176565 -97.94760132 418.58551025 C-97.96421791 409.50067537 -97.96971125 400.41586644 -97.97082607 391.33101764 C-97.97177669 383.94190486 -97.97588767 376.55280064 -97.98222733 369.16369057 C-97.99984523 348.20165306 -98.00906589 327.23963603 -98.00756638 306.27759107 C-98.00748647 305.14740448 -98.00740655 304.01721788 -98.00732422 302.8527832 C-98.00724246 301.72121126 -98.0071607 300.58963932 -98.00707646 299.42377732 C-98.00626446 281.10623873 -98.02537888 262.78878255 -98.05360095 244.47126778 C-98.08236849 225.65063335 -98.09613897 206.83003904 -98.0944134 188.00938207 C-98.0937506 177.44822259 -98.09919378 166.88714938 -98.1207695 156.32600975 C-98.13903273 147.32866742 -98.14328692 138.33145042 -98.12975065 129.33409753 C-98.12324553 124.74868368 -98.12301409 120.1635099 -98.14045715 115.57811928 C-98.15630361 111.36884462 -98.15320772 107.15999805 -98.13588889 102.9507331 C-98.1328441 101.43917791 -98.13635457 99.92758983 -98.14760904 98.41607346 C-98.33362363 71.62937486 -87.90916902 47.15904661 -69.4453125 27.7734375 C-49.49304367 9.15316993 -26.86256507 1.55205931 0 0 Z " fill="#51CDFE" transform="translate(504.63671875,316.84765625)"/>
<path d="M0 0 C1.29687241 -0.00335861 2.59374481 -0.00671722 3.92991638 -0.01017761 C7.47365491 -0.01897759 11.01736925 -0.02135411 14.56111765 -0.0219934 C16.78126556 -0.02270649 19.00140741 -0.02484578 21.2215538 -0.02749062 C28.98478329 -0.03673278 36.74799566 -0.04082716 44.51123047 -0.04003906 C51.7178376 -0.03943948 58.92436958 -0.04997073 66.13095772 -0.06578273 C72.34102066 -0.0789167 78.55105923 -0.08422047 84.76113594 -0.08358365 C88.45980403 -0.08333026 92.15840537 -0.08609245 95.85705948 -0.0967617 C99.99199693 -0.10836433 104.12676934 -0.10366026 108.26171875 -0.09765625 C110.06863945 -0.10608551 110.06863945 -0.10608551 111.9120636 -0.11468506 C134.69849753 -0.0311139 134.69849753 -0.0311139 143.01904297 8.14526367 C143.78216797 8.84651367 144.54529297 9.54776367 145.33154297 10.27026367 C149.58328785 17.51397718 150.88072105 25.37621572 148.93701172 33.53979492 C146.41769598 40.69036343 142.48909621 45.48788349 135.94873047 49.27026367 C132.36273124 50.89630381 129.08681056 51.2742829 125.17077637 51.31021118 C124.1960437 51.32144516 123.22131104 51.33267914 122.21704102 51.34425354 C121.15332275 51.35158005 120.08960449 51.35890656 118.99365234 51.36645508 C117.30459778 51.38371391 117.30459778 51.38371391 115.5814209 51.40132141 C111.84190615 51.43811503 108.10237505 51.46773558 104.36279297 51.49682617 C101.74515571 51.51996948 99.12752064 51.54336001 96.5098877 51.56698608 C91.00189734 51.61586874 85.49388363 51.66048323 79.98583984 51.70288086 C73.69466209 51.7513844 67.40359206 51.80774212 61.11251974 51.86830199 C55.6666464 51.92045093 50.22074409 51.96758157 44.7747941 52.01098955 C41.54340761 52.03678077 38.3120695 52.06471929 35.08073425 52.09636307 C21.64474519 52.22498085 8.21229375 52.21823367 -5.22119141 51.90063477 C-6.37008095 51.8862266 -7.51897049 51.87181843 -8.70267487 51.85697365 C-17.45559829 51.59262569 -25.74614601 49.72645308 -31.98095703 43.14526367 C-37.09894215 35.81562848 -37.9944173 28.92858603 -36.98095703 20.14526367 C-35.61303455 13.37292614 -31.81263907 7.71529431 -26.05908203 3.85620117 C-17.85229988 -0.56528224 -9.09901447 -0.00338896 0 0 Z " fill="#4BC4FE" transform="translate(640.98095703125,514.854736328125)"/>
<path d="M0 0 C6.99799865 4.81502225 10.48914393 10.03002012 12.5625 18.22265625 C13.80557436 25.56456416 11.702841 31.88791128 8.1875 38.3125 C3.15242837 44.49844514 -2.26448386 48.47511331 -10.20703125 49.35546875 C-19.91383439 49.7445822 -26.47096794 47.83983153 -33.875 41.5625 C-40.99862081 32.97225138 -41.82432672 25.82916888 -41 15 C-40.10706753 11.93256876 -38.86153378 9.58047097 -37 7 C-36.38125 6.0925 -35.7625 5.185 -35.125 4.25 C-25.81237092 -5.61043079 -11.40690499 -7.17976515 0 0 Z " fill="#53CEFE" transform="translate(296,519)"/>
<path d="M0 0 C0.33 0 0.66 0 1 0 C1.00135653 0.78849724 1.00271306 1.57699448 1.00411069 2.38938558 C1.0846844 49.07690145 1.17560743 95.76438727 1.28005161 142.45185616 C1.29257114 148.05221383 1.30500381 153.6525717 1.31738281 159.25292969 C1.31984881 160.36790438 1.3223148 161.48287907 1.32485552 162.63164087 C1.36462654 180.70745624 1.39735461 198.7832779 1.42749982 216.85911159 C1.45856595 235.3936036 1.49715443 253.92806881 1.54279006 272.46253073 C1.57073197 283.90794088 1.59274016 295.35333134 1.60726251 306.79876651 C1.61776923 314.63730967 1.63555374 322.47581481 1.65916704 330.31432937 C1.67259155 334.84308389 1.68270609 339.37178488 1.68421364 343.90056038 C1.6856623 348.04073409 1.69617965 352.18077868 1.71413441 356.32091279 C1.71901315 357.82429589 1.72046662 359.32769451 1.71827881 360.83108394 C1.71580503 362.8636071 1.72664446 364.89613379 1.73828697 366.92862511 C1.74056529 368.06095113 1.74284362 369.19327716 1.74519098 370.35991609 C1.73270473 373.15664145 1.73270473 373.15664145 4 375 C3.625 377.625 3.625 377.625 3 380 C0.16466758 377.16466758 0.04554963 375.06169816 -0.1241985 371.10510707 C-0.12381878 369.97050272 -0.12343906 368.83589838 -0.12304783 367.66691208 C-0.12503888 366.35615794 -0.12702993 365.0454038 -0.12908131 363.69492984 C-0.12622823 362.23678492 -0.12328263 360.77864017 -0.12025452 359.32049561 C-0.12069044 357.77436787 -0.12156575 356.2282402 -0.12284368 354.68211293 C-0.12508439 350.42695232 -0.12107312 346.17181677 -0.11606562 341.91665936 C-0.11175526 337.33045641 -0.11320796 332.74425493 -0.1139679 328.15805054 C-0.11449276 320.20996515 -0.11134988 312.26188795 -0.10573006 304.31380463 C-0.09760996 292.82214854 -0.09499931 281.33049642 -0.09374207 269.83883777 C-0.09155235 251.19529064 -0.08489443 232.55174788 -0.07543945 213.90820312 C-0.06626326 195.79557314 -0.05918344 177.68294434 -0.05493164 159.5703125 C-0.05466892 158.45422705 -0.05440619 157.3381416 -0.05413551 156.18823537 C-0.05283049 150.58927527 -0.05156678 144.99031516 -0.05032361 139.39135504 C-0.03995349 92.927567 -0.02233735 46.46378372 0 0 Z " fill="#53C3F6" transform="translate(407,408)"/>
<path d="M0 0 C0.33 0 0.66 0 1 0 C1 118.47 1 236.94 1 359 C0.67 359 0.34 359 0 359 C-0.01030746 358.07815918 -0.02061493 357.15631836 -0.03123474 356.20654297 C-0.1294234 347.4970179 -0.23196718 338.78755715 -0.33933926 330.07814026 C-0.39438142 325.60110812 -0.44777025 321.12406928 -0.49731445 316.64697266 C-0.5452355 312.32215034 -0.597586 307.99740179 -0.65294075 303.67266846 C-0.67323934 302.02697601 -0.69197198 300.38126344 -0.70907402 298.73553467 C-0.73339724 296.42127252 -0.76341001 294.10714612 -0.79467773 291.79296875 C-0.81022202 290.4783667 -0.8257663 289.16376465 -0.84178162 287.80932617 C-1.00787757 283.81033652 -1.45053728 279.96214822 -2 276 C-1.67 276 -1.34 276 -1 276 C-0.67 184.92 -0.34 93.84 0 0 Z " fill="#4BC0FA" transform="translate(459,424)"/>
<path d="M0 0 C0 2 0 2 -1.50390625 3.55078125 C-2.52291016 4.42283203 -2.52291016 4.42283203 -3.5625 5.3125 C-4.28695312 5.93382812 -5.01140625 6.55515625 -5.7578125 7.1953125 C-7.76278851 8.80907368 -9.79916365 10.25898485 -11.9375 11.6875 C-15.13056717 13.59495934 -15.13056717 13.59495934 -15.51953125 16.08203125 C-15.67808594 16.71496094 -15.83664062 17.34789062 -16 18 C-17.9812585 18.72045764 -19.98504093 19.38001259 -22 20 C-24.93297407 22.02514877 -26.96522714 23.95628554 -29.1875 26.75 C-29.785625 27.4925 -30.38375 28.235 -31 29 C-31.66 29 -32.32 29 -33 29 C-33 29.66 -33 30.32 -33 31 C-33.66 31 -34.32 31 -35 31 C-35.06316406 31.55816406 -35.12632812 32.11632812 -35.19140625 32.69140625 C-36.66758051 36.90599072 -40.44807313 39.48187528 -43.65234375 42.46484375 C-46.0104669 45.01130286 -46.80117937 46.80991799 -48 50 C-49.76953125 52.17578125 -49.76953125 52.17578125 -51.8125 54.3125 C-55.48687501 58.30143899 -58.27603307 62.31818184 -61 67 C-61.99 66.67 -62.98 66.34 -64 66 C-63.21625 64.96875 -62.4325 63.9375 -61.625 62.875 C-59.17735758 59.62871369 -56.83010701 56.3246956 -54.50854492 52.98730469 C-49.47558186 45.78982579 -44.01960937 39.40731302 -38 33 C-36.80574939 31.63085913 -35.6176203 30.25633896 -34.4375 28.875 C-27.31185382 20.71954015 -19.48721792 13.70940757 -11 7 C-10.13246094 6.30003906 -9.26492188 5.60007813 -8.37109375 4.87890625 C-2.25528169 0 -2.25528169 0 0 0 Z " fill="#66E0FC" transform="translate(368,238)"/>
<path d="M0 0 C0.33 0 0.66 0 1 0 C1.00331015 0.84852224 1.00662029 1.69704449 1.01003075 2.57127953 C1.09115953 23.19303278 1.18321845 43.81471178 1.28752708 64.43636131 C1.33770429 74.40873039 1.38414651 84.38109104 1.421875 94.35351562 C1.45475859 103.04285073 1.49456948 111.73212137 1.54279006 120.42138541 C1.56809131 125.02465845 1.58986176 129.62788852 1.60334396 134.23121262 C1.61613157 138.56006652 1.63814984 142.88877332 1.66738319 147.21754646 C1.67648492 148.80989687 1.68215521 150.40227098 1.68421364 151.99464607 C1.68751799 154.16175067 1.7029448 156.32843352 1.7215271 158.49545288 C1.72705786 159.71037603 1.73258862 160.92529919 1.73828697 162.17703819 C1.70940078 165.13527575 1.70940078 165.13527575 4 167 C3.625 169.625 3.625 169.625 3 172 C0.1049229 169.1049229 0.03839736 166.96257986 -0.12304783 162.91532516 C-0.12212604 161.69487125 -0.12120424 160.47441734 -0.12025452 159.21697998 C-0.12110894 158.53569259 -0.12196337 157.8544052 -0.12284368 157.15247273 C-0.1244901 154.87082742 -0.11899084 152.58925572 -0.11352539 150.30761719 C-0.11324331 148.67158001 -0.11340166 147.03554271 -0.1139679 145.39950562 C-0.11425506 140.95772431 -0.10837131 136.51596995 -0.10139394 132.07419491 C-0.09514703 127.43237888 -0.09455554 122.79056226 -0.09336853 118.14874268 C-0.09025917 109.35862684 -0.08205108 100.56852342 -0.07201904 91.77841306 C-0.06084566 81.77125725 -0.05534436 71.76410085 -0.05032361 61.75694036 C-0.03986816 41.17128664 -0.02227633 20.5856441 0 0 Z " fill="#4BB6F4" transform="translate(407,616)"/>
<path d="M0 0 C0.33 0 0.66 0 1 0 C1 53.46 1 106.92 1 162 C0.67 162 0.34 162 0 162 C-0.01030746 161.07815918 -0.02061493 160.15631836 -0.03123474 159.20654297 C-0.1294234 150.4970179 -0.23196718 141.78755715 -0.33933926 133.07814026 C-0.39438142 128.60110812 -0.44777025 124.12406928 -0.49731445 119.64697266 C-0.5452355 115.32215034 -0.597586 110.99740179 -0.65294075 106.67266846 C-0.67323934 105.02697601 -0.69197198 103.38126344 -0.70907402 101.73553467 C-0.73339724 99.42127252 -0.76341001 97.10714612 -0.79467773 94.79296875 C-0.81022202 93.4783667 -0.8257663 92.16376465 -0.84178162 90.80932617 C-1.00787757 86.81033652 -1.45053728 82.96214822 -2 79 C-1.67 79 -1.34 79 -1 79 C-0.67 52.93 -0.34 26.86 0 0 Z " fill="#43B5F8" transform="translate(459,621)"/>
<path d="M0 0 C0.66 0.33 1.32 0.66 2 1 C-0.90987161 5.14097114 -3.4609418 6.86942166 -8 9 C-9.67036393 10.32869858 -11.33784732 11.66104368 -13 13 C-13.66 13 -14.32 13 -15 13 C-15.2475 13.598125 -15.495 14.19625 -15.75 14.8125 C-17.18072525 17.31626919 -18.5691582 18.48072388 -21 20 C-21.66 20 -22.32 20 -23 20 C-23 20.66 -23 21.32 -23 22 C-23.680625 22.53625 -24.36125 23.0725 -25.0625 23.625 C-28.18501101 26.14958337 -30.5802256 28.87777619 -33.171875 31.92578125 C-34.90774962 33.89533129 -36.72269525 35.69281049 -38.625 37.5 C-41.65705525 40.46422404 -43.75074658 43.58861142 -45.88671875 47.234375 C-47 49 -47 49 -49 50.9375 C-52.10828652 54.14292047 -53.94705053 58.06237561 -56 62 C-56.77734375 60.4140625 -56.77734375 60.4140625 -57 58 C-55.60961251 55.6156206 -54.22603516 53.55393032 -52.5625 51.375 C-52.10020996 50.75254395 -51.63791992 50.13008789 -51.16162109 49.48876953 C-49.7873512 47.6489829 -48.3952183 45.82392241 -47 44 C-46.33097656 43.1028125 -45.66195312 42.205625 -44.97265625 41.28125 C-39.57734238 34.25479473 -33.32742564 28.17033093 -27 22 C-26.20722656 21.18144531 -25.41445312 20.36289062 -24.59765625 19.51953125 C-21.4357366 16.45270693 -18.07688294 13.73100778 -14.625 11 C-13.99078125 10.49210937 -13.3565625 9.98421875 -12.703125 9.4609375 C-8.56189856 6.16485931 -4.33021095 3.04345576 0 0 Z " fill="#5FD7FC" transform="translate(191,394)"/>
<path d="M0 0 C6.93 0 13.86 0 21 0 C21.495 1.485 21.495 1.485 22 3 C20.95199219 3.09087891 20.95199219 3.09087891 19.8828125 3.18359375 C18.97273438 3.26738281 18.06265625 3.35117188 17.125 3.4375 C16.22007812 3.51871094 15.31515625 3.59992188 14.3828125 3.68359375 C11.98889139 3.86989285 11.98889139 3.86989285 10 5 C8.33157466 4.67558396 6.66519519 4.34060811 5 4 C1.83304044 3.83275263 1.83304044 3.83275263 -1 4 C-1.33 4.33 -1.66 4.66 -2 5 C-4.33333333 5 -6.66666667 5 -9 5 C-10.34061543 5.30271961 -11.67405895 5.63837971 -13 6 C-14.39438037 6.17841481 -15.79044042 6.34394547 -17.1875 6.5 C-20.78054611 6.57749438 -20.78054611 6.57749438 -22 8 C-23.36125 7.9690625 -23.36125 7.9690625 -24.75 7.9375 C-28.12952014 8.00249077 -29.90914829 8.74894098 -33 10 C-36.99878934 10.72923814 -40.93287374 11 -45 11 C-41.80026946 8.8668463 -39.63166812 8.32325955 -35.8984375 7.52734375 C-34.07892578 7.13772461 -34.07892578 7.13772461 -32.22265625 6.74023438 C-30.95292969 6.47533203 -29.68320312 6.21042969 -28.375 5.9375 C-27.12847656 5.66873047 -25.88195312 5.39996094 -24.59765625 5.12304688 C-18.06074417 3.73904384 -11.645049 2.6645049 -5 2 C-4.01 1.67 -3.02 1.34 -2 1 C-1.34 1.33 -0.68 1.66 0 2 C0 1.34 0 0.68 0 0 Z M1 1 C1 1.33 1 1.66 1 2 C2.98 2 4.96 2 7 2 C7 1.67 7 1.34 7 1 C5.02 1 3.04 1 1 1 Z " fill="#66DFFB" transform="translate(487,192)"/>
<path d="M0 0 C0.6875 1.6875 0.6875 1.6875 1 4 C0.04927955 5.69526057 -0.95959156 7.35825457 -2 9 C-5.50349553 15.25023603 -8.84442529 21.56748232 -12 28 C-12.66 28 -13.32 28 -14 28 C-13.4090431 22.9418096 -11.07796454 18.9647795 -8.6875 14.5625 C-8.29626953 13.82451172 -7.90503906 13.08652344 -7.50195312 12.32617188 C-5.2097603 8.04969272 -2.76244913 3.98879954 0 0 Z M-15 28 C-14.34 28.66 -13.68 29.32 -13 30 C-13.29132813 30.74121094 -13.58265625 31.48242188 -13.8828125 32.24609375 C-15.86740437 37.34487224 -17.82290113 42.43772034 -19.59765625 47.61328125 C-19.86239746 48.38293213 -20.12713867 49.15258301 -20.39990234 49.94555664 C-20.92089391 51.46993339 -21.43565132 52.99645646 -21.94384766 54.52514648 C-23.78026392 59.89013196 -23.78026392 59.89013196 -26 61 C-25.76110725 59.36187831 -25.52191546 57.72379969 -25.28125 56.0859375 C-25.08857247 54.65691246 -24.92322382 53.2240122 -24.78125 51.7890625 C-24.58542105 49.85175465 -24.29857541 47.92415265 -24 46 C-23.34 45.67 -22.68 45.34 -22 45 C-21.06986518 43.27658892 -21.06986518 43.27658892 -20.2734375 41.18359375 C-19.9640625 40.41982422 -19.6546875 39.65605469 -19.3359375 38.86914062 C-19.01882813 38.06669922 -18.70171875 37.26425781 -18.375 36.4375 C-17.88773437 35.22803711 -17.88773437 35.22803711 -17.390625 33.99414062 C-16.58765894 31.9985338 -15.79304298 29.99957093 -15 28 Z " fill="#63DEFD" transform="translate(304,305)"/>
<path d="M0 0 C0.66 0.33 1.32 0.66 2 1 C1.25556641 2.58361328 1.25556641 2.58361328 0.49609375 4.19921875 C-6.0290406 18.33216205 -11.39381586 32.840022 -15 48 C-15.66 47.34 -16.32 46.68 -17 46 C-16.73413949 31.11181154 -7.6293356 12.3554727 0 0 Z " fill="#60DCFD" transform="translate(343,346)"/>
<path d="M0 0 C0 0.99 0 1.98 0 3 C-0.99 2.67 -1.98 2.34 -3 2 C-3.33 2.66 -3.66 3.32 -4 4 C-5.32796291 4.35412344 -6.66216607 4.68521554 -8 5 C-8.99 5.66 -9.98 6.32 -11 7 C-12.63686312 7.30322679 -14.28530898 7.54620551 -15.9375 7.75 C-22.66277454 8.87087909 -28.06565323 11.76007809 -34 15 C-41.58536585 19 -41.58536585 19 -45 19 C-45 18.34 -45 17.68 -45 17 C-30.53564632 9.63420326 -15.79968346 3.84711394 0 0 Z " fill="#60D8FC" transform="translate(250,369)"/>
<path d="M0 0 C-3.46293068 2.30862045 -4.90559382 2.27301914 -8.99609375 2.34375 C-10.19556641 2.37339844 -11.39503906 2.40304687 -12.63085938 2.43359375 C-14.51514648 2.46646484 -14.51514648 2.46646484 -16.4375 2.5 C-24.6871495 2.64801482 -32.50937844 3.03212174 -40.59399414 4.77539062 C-43 5 -43 5 -46 3 C-30.9761132 -0.96810299 -15.41608847 -2.32695675 0 0 Z " fill="#61DBFD" transform="translate(521,318)"/>
<path d="M0 0 C0.495 0.99 0.495 0.99 1 2 C1.66 2.33 2.32 2.66 3 3 C-5.74485991 6.27932247 -14.83915768 6.28855367 -24.07910156 6.61254883 C-26.1002576 6.68659357 -28.12019066 6.77772829 -30.140625 6.86914062 C-39.05095092 7.18736655 -47.23154182 6.57025323 -56 5 C-56 4.67 -56 4.34 -56 4 C-48.59273998 2.87007898 -48.59273998 2.87007898 -45.80126953 3.48193359 C-40.50533285 4.4613634 -35.07972814 4.18591956 -29.70776367 4.18530273 C-27.57255123 4.18748971 -25.43785565 4.20567533 -23.30273438 4.22460938 C-21.93229342 4.2275439 -20.56185003 4.2295283 -19.19140625 4.23046875 C-17.33817749 4.23663208 -17.33817749 4.23663208 -15.44750977 4.24291992 C-11.96259198 3.99736414 -9.26996003 3.17632989 -6 2 C-2.625 1.875 -2.625 1.875 0 2 C0 1.34 0 0.68 0 0 Z " fill="#4DBCFA" transform="translate(334,726)"/>
<path d="M0 0 C16.17 0 32.34 0 49 0 C49 0.33 49 0.66 49 1 C47.19402344 1.09087891 47.19402344 1.09087891 45.3515625 1.18359375 C43.77602923 1.26799732 42.20050904 1.35264541 40.625 1.4375 C39.8309375 1.47681641 39.036875 1.51613281 38.21875 1.55664062 C33.97398779 1.68893404 33.97398779 1.68893404 30 3 C27.62597499 3.07116382 25.24999323 3.08409085 22.875 3.0625 C21.59367187 3.05347656 20.31234375 3.04445313 18.9921875 3.03515625 C18.00476563 3.02355469 17.01734375 3.01195312 16 3 C16 2.34 16 1.68 16 1 C11.71 1 7.42 1 3 1 C2.67 1.66 2.34 2.32 2 3 C1.34 2.01 0.68 1.02 0 0 Z " fill="#4FC0FC" transform="translate(280,679)"/>
<path d="M0 0 C0.66 0.33 1.32 0.66 2 1 C2 1.99 2 2.98 2 4 C1.34 4 0.68 4 0 4 C0.16749756 4.93336182 0.33499512 5.86672363 0.50756836 6.82836914 C1.21375936 11.80474433 1.01858769 16.73408235 0.87890625 21.74609375 C0.85529526 22.75720718 0.83168427 23.76832062 0.80735779 24.81007385 C0.73117375 28.01937506 0.64695615 31.2284069 0.5625 34.4375 C0.50923395 36.62173189 0.45649391 38.80597668 0.40429688 40.99023438 C0.27562037 46.32698726 0.1403587 51.66354226 0 57 C-0.33 57 -0.66 57 -1 57 C-1.1944706 50.16848453 -1.3716649 43.33667411 -1.53710938 36.50439453 C-1.59534647 34.18235234 -1.65747261 31.86040417 -1.72363281 29.53857422 C-1.81829082 26.19255707 -1.89875055 22.84644622 -1.9765625 19.5 C-2.00875885 18.4694751 -2.0409552 17.4389502 -2.0741272 16.37719727 C-2.19469348 10.51730281 -1.71324771 5.61337133 0 0 Z " fill="#5EDEFE" transform="translate(409,393)"/>
<path d="M0 0 C1.98 0 3.96 0 6 0 C6 0.66 6 1.32 6 2 C8.97 2 11.94 2 15 2 C15.33 1.34 15.66 0.68 16 0 C16 0.99 16 1.98 16 3 C16.65226563 2.98839844 17.30453125 2.97679687 17.9765625 2.96484375 C22.7761914 2.91529006 27.27784685 3.00586249 32 4 C32 4.33 32 4.66 32 5 C27.92662508 5.7050072 24.95985676 6.06982997 21 5 C13.67242763 4.03803345 6.38072598 3.87151541 -1 4 C-0.67 2.68 -0.34 1.36 0 0 Z " fill="#66DDFB" transform="translate(518,192)"/>
<path d="M0 0 C0.66 0.33 1.32 0.66 2 1 C1 3 0 5 -1 7 C-1.66 7 -2.32 7 -3 7 C-3.0825 7.680625 -3.165 8.36125 -3.25 9.0625 C-4.03950848 12.15474154 -5.37650062 14.50656625 -7.015625 17.2265625 C-8.39049588 19.70351242 -9.18261654 22.296347 -10 25 C-10.33 25.66 -10.66 26.32 -11 27 C-11.66 27 -12.32 27 -13 27 C-12.37076399 22.18211832 -10.37117367 18.33076959 -8.1875 14.0625 C-7.84396484 13.37220703 -7.50042969 12.68191406 -7.14648438 11.97070312 C-5.02208805 7.76575355 -2.69230923 3.86603505 0 0 Z " fill="#5FDBFD" transform="translate(425,357)"/>
<path d="M0 0 C0.66 0 1.32 0 2 0 C2 0.66 2 1.32 2 2 C1.11699219 2.36351562 0.23398437 2.72703125 -0.67578125 3.1015625 C-7.65461417 6.02502635 -14.3234264 9.10966908 -20.890625 12.8984375 C-23 14 -23 14 -25 14 C-24 11 -24 11 -21.75 9.3125 C-18.8635748 7.93488797 -17.14826764 7.73014849 -14 8 C-13.67 7.01 -13.34 6.02 -13 5 C-10.3125 3.8671875 -10.3125 3.8671875 -7 2.875 C-3.20423099 1.97845311 -3.20423099 1.97845311 0 0 Z " fill="#62DFFD" transform="translate(437,260)"/>
<path d="M0 0 C0.66 0.66 1.32 1.32 2 2 C1.828125 4.80078125 1.828125 4.80078125 1.25 8.3125 C1.05148438 9.55902344 0.85296875 10.80554688 0.6484375 12.08984375 C0.43445313 13.38019531 0.22046875 14.67054688 0 16 C-0.37737511 18.45796985 -0.75254834 20.91627929 -1.125 23.375 C-1.41588984 25.25012067 -1.70725222 27.12516849 -2 29 C-2.33 29 -2.66 29 -3 29 C-4.13965116 21.95423212 -3.63336242 16.3665792 -2.0625 9.4375 C-1.86720703 8.52419922 -1.67191406 7.61089844 -1.47070312 6.66992188 C-0.99280394 4.44361104 -0.50245838 2.22087246 0 0 Z " fill="#5CD2FB" transform="translate(113,500)"/>
<path d="M0 0 C-5.64509567 3.0396669 -11.23875479 5.17257191 -17.36328125 7.0703125 C-20.17901829 7.94135075 -20.17901829 7.94135075 -23 10 C-23.66 9.01 -24.32 8.02 -25 7 C-22.06296271 5.85297813 -19.12529143 4.7075888 -16.1875 3.5625 C-15.35412109 3.23701172 -14.52074219 2.91152344 -13.66210938 2.57617188 C-12.85966797 2.26357422 -12.05722656 1.95097656 -11.23046875 1.62890625 C-10.49207764 1.34088135 -9.75368652 1.05285645 -8.99291992 0.75610352 C-5.45314886 -0.58686733 -3.62581983 -1.12525443 0 0 Z " fill="#67E2FC" transform="translate(438,205)"/>
<path d="M0 0 C1.66611905 -0.042721 3.33382885 -0.04063832 5 0 C5.33 0.33 5.66 0.66 6 1 C13.91950114 2.36368961 21.98460815 2.33969866 30 2.5625 C31.45704157 2.60577365 32.91407299 2.6493905 34.37109375 2.69335938 C37.91395412 2.79953302 41.45692963 2.90105111 45 3 C45 3.33 45 3.66 45 4 C40.52003377 4.05008562 36.04022339 4.08603769 31.56005859 4.10986328 C30.04147496 4.11981384 28.52290993 4.13337916 27.00439453 4.15087891 C17.7837455 4.25434493 9.06879307 3.9458199 0 2 C0 1.34 0 0.68 0 0 Z " fill="#41B4FA" transform="translate(690,732)"/>
<path d="M0 0 C5.28 0 10.56 0 16 0 C16 0.33 16 0.66 16 1 C14.02 1 12.04 1 10 1 C10 1.66 10 2.32 10 3 C0.1 4.485 0.1 4.485 -10 6 C-10.33 5.34 -10.66 4.68 -11 4 C-10.67 3.34 -10.34 2.68 -10 2 C-7.525 2.99 -7.525 2.99 -5 4 C-4.67 3.34 -4.34 2.68 -4 2 C-2.68 2 -1.36 2 0 2 C0 1.34 0 0.68 0 0 Z " fill="#63DFFE" transform="translate(482,246)"/>
<path d="M0 0 C0.33 0 0.66 0 1 0 C0.73581943 7.59519133 -0.2048905 14.73923727 -1.9375 22.125 C-2.10733398 22.85904053 -2.27716797 23.59308105 -2.45214844 24.34936523 C-3.27339361 27.7066937 -4.06393818 30.09590726 -6 33 C-5.52766665 28.67027763 -4.92496052 24.5407194 -3.875 20.3125 C-3.04719142 16.83330453 -3.15095386 14.50231534 -4 11 C-3.34 10.34 -2.68 9.68 -2 9 C-1.32348793 6.80295489 -1.32348793 6.80295489 -0.875 4.375 C-0.62363281 3.14910156 -0.62363281 3.14910156 -0.3671875 1.8984375 C-0.24601563 1.27195312 -0.12484375 0.64546875 0 0 Z " fill="#4EBDFA" transform="translate(923,563)"/>
<path d="M0 0 C0.66 0.33 1.32 0.66 2 1 C-1.39176606 4.70974412 -4.82129815 7.28197356 -9.12890625 9.86328125 C-11.19178042 11.11650961 -13.10799001 12.50215876 -15 14 C-15 13.34 -15 12.68 -15 12 C-15.66 11.67 -16.32 11.34 -17 11 C-14.21681883 9.13284189 -11.42220667 7.28356646 -8.625 5.4375 C-7.8309375 4.90447266 -7.036875 4.37144531 -6.21875 3.82226562 C-5.45820313 3.32275391 -4.69765625 2.82324219 -3.9140625 2.30859375 C-2.8614624 1.60947876 -2.8614624 1.60947876 -1.78759766 0.89624023 C-1.19769043 0.60048096 -0.6077832 0.30472168 0 0 Z " fill="#67E2FD" transform="translate(386,225)"/>
<path d="M0 0 C8.11138929 0.36620268 15.33035667 2.41540233 23 5 C22.67 5.66 22.34 6.32 22 7 C21.40832031 6.86722656 20.81664062 6.73445312 20.20703125 6.59765625 C16.87156103 5.85220858 13.53900125 5.10780025 10.1875 4.4375 C8.10519962 4.02103992 6.05526698 3.53284699 4 3 C4 2.34 4 1.68 4 1 C2.68 1.33 1.36 1.66 0 2 C0 1.34 0 0.68 0 0 Z " fill="#64DEFB" transform="translate(560,199)"/>
<path d="M0 0 C1.10859375 0.0721875 2.2171875 0.144375 3.359375 0.21875 C4.82291241 0.3125665 6.28645431 0.40631282 7.75 0.5 C8.47960937 0.54769531 9.20921875 0.59539063 9.9609375 0.64453125 C13.31810164 0.85816897 16.63436276 1 20 1 C15.36539076 4.08973949 10.05160346 4.48492575 4.56640625 3.61328125 C2.69285087 3.14238765 0.8426705 2.58009997 -1 2 C-0.67 1.34 -0.34 0.68 0 0 Z " fill="#4BBAF7" transform="translate(424,799)"/>
<path d="M0 0 C0.45890625 0.40992188 0.9178125 0.81984375 1.390625 1.2421875 C2.00421875 1.78101563 2.6178125 2.31984375 3.25 2.875 C3.85328125 3.40867187 4.4565625 3.94234375 5.078125 4.4921875 C6.97418746 5.9797487 8.81290005 7.00322436 11 8 C11 8.99 11 9.98 11 11 C11.99 11.33 12.98 11.66 14 12 C14 12.66 14 13.32 14 14 C14.66 14 15.32 14 16 14 C17.625 15.5 17.625 15.5 19 17 C18.67 17.66 18.34 18.32 18 19 C11.70127052 13.68654664 5.49093879 8.15480229 0 2 C0 1.34 0 0.68 0 0 Z " fill="#4BBCFB" transform="translate(557,659)"/>
<path d="M0 0 C1.61778428 4.50892135 -0.02043409 7.42414395 -1.80859375 11.6484375 C-3.15446388 14.30487624 -4.65554667 16.15792953 -7 18 C-6.44380331 13.3110507 -5.11817327 9.80075733 -2.9375 5.625 C-2.38964844 4.56539063 -1.84179688 3.50578125 -1.27734375 2.4140625 C-0.85582031 1.61742187 -0.43429688 0.82078125 0 0 Z " fill="#5ED5FC" transform="translate(130,459)"/>
<path d="M0 0 C0.33 0.99 0.66 1.98 1 3 C-0.24034412 4.32162881 -1.49268626 5.63200453 -2.75 6.9375 C-3.44609375 7.66839844 -4.1421875 8.39929688 -4.859375 9.15234375 C-7.00599725 11.00517646 -8.23532932 11.60771565 -11 12 C-9.49650623 8.33213607 -7.36271208 6.31089607 -4.375 3.75 C-3.14910156 2.69039063 -3.14910156 2.69039063 -1.8984375 1.609375 C-1.27195312 1.07828125 -0.64546875 0.5471875 0 0 Z " fill="#60DBFD" transform="translate(442,339)"/>
<path d="M0 0 C0.66 0.66 1.32 1.32 2 2 C0.95199219 2.93972656 0.95199219 2.93972656 -0.1171875 3.8984375 C-1.02726563 4.71570313 -1.93734375 5.53296875 -2.875 6.375 C-3.77992188 7.18710937 -4.68484375 7.99921875 -5.6171875 8.8359375 C-7.10896183 10.19076205 -8.57505435 11.57505435 -10 13 C-10.99 12.67 -11.98 12.34 -13 12 C-8.87675353 7.74790208 -4.48717034 3.86364295 0 0 Z " fill="#5BD6FD" transform="translate(211,444)"/>
<path d="M0 0 C-0.33 0.66 -0.66 1.32 -1 2 C-6.90141871 3.86360591 -12.85959995 4.22742222 -19 4 C-15.64216543 0.98952763 -12.79588339 0.36872409 -8.375 -0.25 C-7.22773438 -0.42015625 -6.08046875 -0.5903125 -4.8984375 -0.765625 C-2 -1 -2 -1 0 0 Z " fill="#5FD7FD" transform="translate(311,415)"/>
<path d="M0 0 C0.66 0 1.32 0 2 0 C3.06080085 2.0736559 4.09809524 4.15935086 5.125 6.25 C5.70507812 7.41015625 6.28515625 8.5703125 6.8828125 9.765625 C8 13 8 13 7.1796875 15.421875 C6.59574219 16.20304687 6.59574219 16.20304687 6 17 C4.99580363 14.5433053 3.99649499 12.08481647 3 9.625 C2.71382812 8.92632812 2.42765625 8.22765625 2.1328125 7.5078125 C0 2.2265625 0 2.2265625 0 0 Z " fill="#5DD6FD" transform="translate(591,368)"/>
<path d="M0 0 C-0.99 0.33 -1.98 0.66 -3 1 C-3 1.66 -3 2.32 -3 3 C-8.33333333 5 -13.66666667 7 -19 9 C-19.66 8.34 -20.32 7.68 -21 7 C-17.88036821 5.63321521 -14.75353763 4.28376009 -11.625 2.9375 C-10.73554687 2.54755859 -9.84609375 2.15761719 -8.9296875 1.75585938 C-8.07890625 1.39169922 -7.228125 1.02753906 -6.3515625 0.65234375 C-5.56604004 0.31195068 -4.78051758 -0.02844238 -3.97119141 -0.37915039 C-2 -1 -2 -1 0 0 Z " fill="#48BCFC" transform="translate(795,668)"/>
<path d="M0 0 C0.66 0.33 1.32 0.66 2 1 C-2.93335002 5.41808902 -7.87997323 9.79895239 -13 14 C-13.66 13.67 -14.32 13.34 -15 13 C-12.19195732 10.03595495 -9.81684226 7.55500981 -6 6 C-6 5.34 -6 4.68 -6 4 C-5.01 3.67 -4.02 3.34 -3 3 C-1.33289654 1.50014391 -1.33289654 1.50014391 0 0 Z " fill="#48B8F9" transform="translate(862,681)"/>
<path d="M0 0 C0.33 0 0.66 0 1 0 C0.65226572 6.63093294 0.03910346 12.053928 -3 18 C-3.66 17.67 -4.32 17.34 -5 17 C-1.92482916 5.47835991 -1.92482916 5.47835991 0 0 Z " fill="#5DD3FB" transform="translate(119,482)"/>
<path d="M0 0 C2.83151788 3.37085462 4.3350676 6.94625154 6 11 C6.65288627 12.34013497 7.31225595 13.67741528 8 15 C7.01 15.66 6.02 16.32 5 17 C2.75345918 12.21389129 1.73832398 8.27374275 1 3 C0.34 2.67 -0.32 2.34 -1 2 C-0.67 1.34 -0.34 0.68 0 0 Z " fill="#5DD4FC" transform="translate(725,329)"/>
<path d="M0 0 C0.66 0.66 1.32 1.32 2 2 C1.443125 2.66 0.88625 3.32 0.3125 4 C-2.39898378 7.51760058 -4.70204929 11.2046142 -7 15 C-7.66 14.34 -8.32 13.68 -9 13 C-7.8782037 11.2063257 -6.75245517 9.4151227 -5.625 7.625 C-4.99851563 6.62726563 -4.37203125 5.62953125 -3.7265625 4.6015625 C-2 2 -2 2 0 0 Z " fill="#5CD5FC" transform="translate(187,469)"/>
<path d="M0 0 C1.625 1.4375 1.625 1.4375 3 4 C2.80217487 7.14322157 2.25649482 10.10536474 1 13 C0.01 13.33 -0.98 13.66 -2 14 C-1.85795259 12.41632253 -1.71119847 10.83306682 -1.5625 9.25 C-1.48128906 8.36828125 -1.40007813 7.4865625 -1.31640625 6.578125 C-1.03761535 4.30649548 -0.61209423 2.20148177 0 0 Z " fill="#4CC1FD" transform="translate(869,564)"/>
<path d="M0 0 C0.33 0.99 0.66 1.98 1 3 C-2.49359465 6.59634744 -6.11098131 9.83451967 -10 13 C-10.66 12.67 -11.32 12.34 -12 12 C-8.04 8.04 -4.08 4.08 0 0 Z " fill="#4ABDFC" transform="translate(836,634)"/>
<path d="M0 0 C0.66 0.66 1.32 1.32 2 2 C0.58680023 3.12935196 -0.83071405 4.25330626 -2.25 5.375 C-3.03890625 6.00148438 -3.8278125 6.62796875 -4.640625 7.2734375 C-6.71181189 8.78910737 -8.67069497 9.94219634 -11 11 C-10.34 9.35 -9.68 7.7 -9 6 C-8.34 6 -7.68 6 -7 6 C-7 5.34 -7 4.68 -7 4 C-4.69 2.68 -2.38 1.36 0 0 Z " fill="#63E0FD" transform="translate(397,282)"/>
<path d="M0 0 C2.50356732 3.75535098 1.9608592 4.86889414 1.125 9.1875 C0.92132813 10.27417969 0.71765625 11.36085938 0.5078125 12.48046875 C0.34023438 13.31191406 0.17265625 14.14335937 0 15 C-0.99 14.34 -1.98 13.68 -3 13 C-2.69240822 11.02006459 -2.3787932 9.04106401 -2.0625 7.0625 C-1.88847656 5.96035156 -1.71445312 4.85820312 -1.53515625 3.72265625 C-1 1 -1 1 0 0 Z " fill="#5CD8FE" transform="translate(461,400)"/>
<path d="M0 0 C1.37095624 3.69037278 0.60010967 5.70883835 -0.9375 9.25 C-1.31777344 10.14203125 -1.69804688 11.0340625 -2.08984375 11.953125 C-2.39019531 12.62859375 -2.69054687 13.3040625 -3 14 C-3.66 13.01 -4.32 12.02 -5 11 C-4.34 11 -3.68 11 -3 11 C-3.33 9.02 -3.66 7.04 -4 5 C-3.01 4.34 -2.02 3.68 -1 3 C-0.67 2.01 -0.34 1.02 0 0 Z " fill="#4BBCFA" transform="translate(916,596)"/>
<path d="M0 0 C3.85652635 0.26294498 5.5160506 0.47456922 8.1875 3.375 C8.785625 4.24125 9.38375 5.1075 10 6 C10.98230498 7.0173873 11.97469597 8.02596117 13 9 C9.26130751 9 8.63449295 8.09514308 5.9375 5.625 C5.24527344 4.99851562 4.55304687 4.37203125 3.83984375 3.7265625 C2.53923035 2.50602933 1.26120903 1.26120903 0 0 Z " fill="#5ED8FD" transform="translate(620,284)"/>
<path d="M0 0 C0.99 0 1.98 0 3 0 C3 0.99 3 1.98 3 3 C4.11375 2.87625 4.11375 2.87625 5.25 2.75 C8 3 8 3 10.3125 4.875 C12 7 12 7 12 9 C2.99264706 5.65441176 2.99264706 5.65441176 0.6875 1.8125 C0.460625 1.214375 0.23375 0.61625 0 0 Z " fill="#62DCFE" transform="translate(600,269)"/>
<path d="M0 0 C3.0390625 0.0234375 3.0390625 0.0234375 6.625 0.375 C7.81351563 0.48585937 9.00203125 0.59671875 10.2265625 0.7109375 C11.14179687 0.80632812 12.05703125 0.90171875 13 1 C13 1.66 13 2.32 13 3 C8.05 2.67 3.1 2.34 -2 2 C-1.34 1.34 -0.68 0.68 0 0 Z " fill="#64DFFD" transform="translate(528,247)"/>
<path d="M0 0 C-3.65120544 3.33370932 -8.21633909 4.97807612 -13 6 C-13.99 5.67 -14.98 5.34 -16 5 C-14.27656245 4.15488176 -12.54595947 3.32436646 -10.8125 2.5 C-9.36810547 1.80390625 -9.36810547 1.80390625 -7.89453125 1.09375 C-5.01077307 0.00407079 -3.04645139 -0.22277524 0 0 Z " fill="#49B7FA" transform="translate(803,720)"/>
<path d="M0 0 C5.23880078 0.55145271 9.97350697 1.42922093 15 3 C15 3.33 15 3.66 15 4 C10.71 3.67 6.42 3.34 2 3 C2 2.34 2 1.68 2 1 C1.34 0.67 0.68 0.34 0 0 Z " fill="#47BAFC" transform="translate(671,678)"/>
<path d="M0 0 C-3.66291938 2.47785723 -6.6109185 3.48964169 -11 4 C-11.33 3.34 -11.66 2.68 -12 2 C-10.56656 1.46809459 -9.12804633 0.94984742 -7.6875 0.4375 C-6.48673828 0.00244141 -6.48673828 0.00244141 -5.26171875 -0.44140625 C-3 -1 -3 -1 0 0 Z " fill="#64E1FE" transform="translate(455,255)"/>
<path d="M0 0 C2.55919129 0.77610791 4.20771505 1.125 6.9375 1.125 C6.6075 2.115 6.2775 3.105 5.9375 4.125 C1.3175 3.135 -3.3025 2.145 -8.0625 1.125 C-3.57851423 -1.11699288 -3.57851423 -1.11699288 0 0 Z " fill="#62DBFE" transform="translate(553.0625,250.875)"/>
<path d="M0 0 C1.32 0.33 2.64 0.66 4 1 C4 1.99 4 2.98 4 4 C6.475 4.99 6.475 4.99 9 6 C9 6.66 9 7.32 9 8 C5.08158173 6.69386058 2.67359191 5.16870152 0 2 C0 1.34 0 0.68 0 0 Z " fill="#49BAF7" transform="translate(412,791)"/>
<path d="M0 0 C2.28814723 2.28814723 2.75451161 3.80751622 3.6875 6.875 C3.95949219 7.73867188 4.23148438 8.60234375 4.51171875 9.4921875 C5.01692938 12.08694932 4.85561171 13.530785 4 16 C0 5.73913043 0 5.73913043 0 0 Z " fill="#4EC2FA" transform="translate(915,489)"/>
<path d="M0 0 C2.64 0.66 5.28 1.32 8 2 C8 2.66 8 3.32 8 4 C8.66 4 9.32 4 10 4 C9.67 4.66 9.34 5.32 9 6 C4.05 4.02 4.05 4.02 -1 2 C-0.67 1.34 -0.34 0.68 0 0 Z " fill="#61DBFD" transform="translate(565,254)"/>
<path d="M0 0 C0.99 0.33 1.98 0.66 3 1 C1.02 1.99 1.02 1.99 -1 3 C-1 3.66 -1 4.32 -1 5 C-2.62626404 6.38232443 -4.2925002 7.71937515 -6 9 C-6 6 -6 6 -3.5625 3.375 C-2.716875 2.59125 -1.87125 1.8075 -1 1 C-0.67 0.67 -0.34 0.34 0 0 Z " fill="#64E0FD" transform="translate(382,294)"/>
<path d="M0 0 C0.68359375 1.765625 0.68359375 1.765625 1 4 C-0.21484375 5.921875 -0.21484375 5.921875 -1.9375 7.75 C-2.50339844 8.36359375 -3.06929687 8.9771875 -3.65234375 9.609375 C-4.31943359 10.29773438 -4.31943359 10.29773438 -5 11 C-5 7.58678765 -4.33132534 6.60527115 -2.5 3.8125 C-2.0359375 3.09707031 -1.571875 2.38164063 -1.09375 1.64453125 C-0.7328125 1.10183594 -0.371875 0.55914063 0 0 Z " fill="#4CBEFC" transform="translate(855,607)"/>
<path d="M0 0 C0.66 0 1.32 0 2 0 C-2.01818182 10.50909091 -2.01818182 10.50909091 -5 12 C-3.68938409 7.76570244 -2.05643741 3.92592596 0 0 Z " fill="#4BBEFD" transform="translate(861,594)"/>
<path d="M0 0 C0 0.99 0 1.98 0 3 C-5.17578125 6.22265625 -5.17578125 6.22265625 -7 7 C-7.99 6.67 -8.98 6.34 -10 6 C-6.7 4.02 -3.4 2.04 0 0 Z " fill="#61D8FC" transform="translate(203,387)"/>
<path d="M0 0 C3.2542015 2.83430453 4.5206753 4.68607774 5 9 C4.01 9.495 4.01 9.495 3 10 C3 9.34 3 8.68 3 8 C2.34 7.67 1.68 7.34 1 7 C0.59270772 4.67843403 0.25561323 2.3431213 0 0 Z " fill="#5CD5FD" transform="translate(674,350)"/>
<path d="M0 0 C3.59391114 1.33488128 6.75490696 2.96022723 10 5 C9.67 5.99 9.34 6.98 9 8 C4.125 5.25 4.125 5.25 3 3 C2.01 2.67 1.02 2.34 0 2 C0 1.34 0 0.68 0 0 Z " fill="#64DDFB" transform="translate(632,227)"/>
<path d="M0 0 C-1 2 -1 2 -2.6875 2.75 C-5.82673219 3.08937645 -8.08902106 2.12469641 -11 1 C-6.8204355 -1.78637633 -4.85331323 -0.79562512 0 0 Z " fill="#67E0FD" transform="translate(560,198)"/>
<path d="M0 0 C3.73884332 2.65654657 5.64978174 4.58110387 7 9 C3.26955235 7.75651745 2.20459674 6.19286425 0 3 C0 2.01 0 1.02 0 0 Z " fill="#5ED8FE" transform="translate(652,313)"/>
<path d="M0 0 C3.375 -0.1875 3.375 -0.1875 7 0 C7.66 0.99 8.32 1.98 9 3 C8.01 3.33 7.02 3.66 6 4 C6 3.34 6 2.68 6 2 C3.69 2 1.38 2 -1 2 C-0.67 1.34 -0.34 0.68 0 0 Z " fill="#4CBDFB" transform="translate(268,728)"/>
<path d="M0 0 C-1.1858237 3.37503669 -2.27573689 5.64722731 -5 8 C-5 7.34 -5 6.68 -5 6 C-5.66 5.67 -6.32 5.34 -7 5 C-2.25 0 -2.25 0 0 0 Z " fill="#61DCFD" transform="translate(352,333)"/>
<path d="M0 0 C3.36720387 1.39332574 4.9859524 2.9789286 7 6 C6.67 6.66 6.34 7.32 6 8 C1.125 3.375 1.125 3.375 0 0 Z " fill="#60D8FB" transform="translate(695,282)"/>
<path d="M0 0 C2.64 0 5.28 0 8 0 C7.67 0.66 7.34 1.32 7 2 C4.67843403 2.40729228 2.3431213 2.74438677 0 3 C0 2.01 0 1.02 0 0 Z " fill="#4BBDFC" transform="translate(723,684)"/>
<path d="M0 0 C2.88437779 1.29299694 4.87219421 2.65941363 7 5 C6.67 5.99 6.34 6.98 6 8 C1.125 3.375 1.125 3.375 0 0 Z " fill="#4BBFFD" transform="translate(341,685)"/>
<path d="M0 0 C1.5625 1.75 1.5625 1.75 3 4 C2.6875 6.25 2.6875 6.25 2 8 C1.34 8 0.68 8 0 8 C-1.125 2.25 -1.125 2.25 0 0 Z " fill="#5CD3FE" transform="translate(684,373)"/>
<path d="M0 0 C0.33 0.66 0.66 1.32 1 2 C-0.65 3.98 -2.3 5.96 -4 8 C-4.33 7.01 -4.66 6.02 -5 5 C-3.35 3.35 -1.7 1.7 0 0 Z " fill="#65DFFD" transform="translate(373,303)"/>
<path d="M0 0 C3.81684226 1.55500981 6.19195732 4.03595495 9 7 C5.07353523 5.69117841 2.72225079 4.1255472 0 1 C0 0.67 0 0.34 0 0 Z " fill="#63D9FB" transform="translate(657,244)"/>
<path d="M0 0 C0.99 0.33 1.98 0.66 3 1 C1.90554162 1.86657116 0.79902219 2.71792724 -0.3125 3.5625 C-0.92738281 4.03816406 -1.54226563 4.51382813 -2.17578125 5.00390625 C-2.77777344 5.33261719 -3.37976563 5.66132813 -4 6 C-4.99 5.67 -5.98 5.34 -7 5 C-4.702779 3.25728062 -2.40133271 1.60088848 0 0 Z " fill="#68E1FC" transform="translate(399,218)"/>
<path d="M0 0 C0.99 0.66 1.98 1.32 3 2 C-0.625 6.875 -0.625 6.875 -4 8 C-4 7.34 -4 6.68 -4 6 C-3.34 6 -2.68 6 -2 6 C-1.34 4.02 -0.68 2.04 0 0 Z " fill="#5CD7FD" transform="translate(468,386)"/>
<path d="M0 0 C4 1 4 1 4 1 Z " fill="#54B8F1" transform="translate(755,735)"/>
<path d="M0 0 C1 4 1 4 1 4 Z " fill="#59C8FD" transform="translate(868,554)"/>
<path d="M0 0 C0.99 0.33 1.98 0.66 3 1 C2.01 1 1.02 1 0 1 C0 0.67 0 0.34 0 0 Z " fill="#6AD6F6" transform="translate(168,408)"/>
<path d="M0 0 C0.99 0.33 1.98 0.66 3 1 C2.01 1.33 1.02 1.66 0 2 C0 1.34 0 0.68 0 0 Z " fill="#6AD6F5" transform="translate(190,392)"/>
<path d="M0 0 C1.485 0.99 1.485 0.99 3 2 C2.01 2 1.02 2 0 2 C0 1.34 0 0.68 0 0 Z " fill="#5ECEF9" transform="translate(790,368)"/>
<path d="M0 0 C3 1 3 1 3 1 Z " fill="#57BCF3" transform="translate(232,723)"/>
<path d="M0 0 C3 1 3 1 3 1 Z " fill="#50C1FE" transform="translate(707,682)"/>
<path d="M0 0 C3 1 3 1 3 1 Z " fill="#50C2FD" transform="translate(690,680)"/>
<path d="" fill="#5ED0FC" transform="translate(0,0)"/>
<path d="M0 0 C0.66 0.66 1.32 1.32 2 2 C1.34 2 0.68 2 0 2 C0 1.34 0 0.68 0 0 Z " fill="#69DDFD" transform="translate(633,296)"/>
<path d="M0 0 C3 1 3 1 3 1 Z " fill="#70DFF8" transform="translate(371,232)"/>
<path d="" fill="#57C1F7" transform="translate(0,0)"/>
<path d="M0 0 C2 1 2 1 2 1 Z " fill="#4FB8F1" transform="translate(752,735)"/>
<path d="M0 0 C2 1 2 1 2 1 Z " fill="#51B7F2" transform="translate(683,734)"/>
<path d="M0 0 C2 1 2 1 2 1 Z " fill="#57BDF3" transform="translate(319,733)"/>
<path d="M0 0 C2 1 2 1 2 1 Z " fill="#56BCF3" transform="translate(303,733)"/>
<path d="M0 0 C2 1 2 1 2 1 Z " fill="#50BAF1" transform="translate(808,719)"/>
<path d="M0 0 C2 1 2 1 2 1 Z " fill="#4EBAF5" transform="translate(632,719)"/>
<path d="" fill="#54BDF4" transform="translate(0,0)"/>
<path d="M0 0 C2 1 2 1 2 1 Z " fill="#51C2FE" transform="translate(665,674)"/>
<path d="M0 0 C2 1 2 1 2 1 Z " fill="#51C5FE" transform="translate(777,672)"/>
<path d="" fill="#57BFF8" transform="translate(0,0)"/>
<path d="" fill="#5BC6F4" transform="translate(0,0)"/>
<path d="" fill="#5EC9F5" transform="translate(0,0)"/>
<path d="" fill="#62C9F4" transform="translate(0,0)"/>
<path d="" fill="#62C8F2" transform="translate(0,0)"/>
<path d="" fill="#61D0FA" transform="translate(0,0)"/>
<path d="M0 0 C2 1 2 1 2 1 Z " fill="#59CBFA" transform="translate(757,567)"/>
<path d="M0 0 C2 1 2 1 2 1 Z " fill="#57CAFB" transform="translate(733,567)"/>
<path d="M0 0 C2 1 2 1 2 1 Z " fill="#56C7FC" transform="translate(704,567)"/>
<path d="M0 0 C2 1 2 1 2 1 Z " fill="#55C9FB" transform="translate(680,567)"/>
<path d="M0 0 C2 1 2 1 2 1 Z " fill="#57C8F8" transform="translate(644,567)"/>
<path d="M0 0 C2 1 2 1 2 1 Z " fill="#57CAFB" transform="translate(632,567)"/>
<path d="M0 0 C2 1 2 1 2 1 Z " fill="#59CBFE" transform="translate(603,551)"/>
<path d="" fill="#58CDFD" transform="translate(0,0)"/>
<path d="" fill="#64D6FC" transform="translate(0,0)"/>
<path d="" fill="#63D5FE" transform="translate(0,0)"/>
<path d="" fill="#68D6FB" transform="translate(0,0)"/>
<path d="M0 0 C2 1 2 1 2 1 Z " fill="#69D9F9" transform="translate(278,513)"/>
<path d="M0 0 C2 1 2 1 2 1 Z " fill="#5ED2FD" transform="translate(544,503)"/>
<path d="" fill="#5DC5F5" transform="translate(0,0)"/>
<path d="" fill="#5ECFFC" transform="translate(0,0)"/>
<path d="" fill="#58C4F2" transform="translate(0,0)"/>
<path d="M0 0 C2 1 2 1 2 1 Z " fill="#66D3F5" transform="translate(152,424)"/>
<path d="M0 0 C2 1 2 1 2 1 Z " fill="#66DCFC" transform="translate(261,423)"/>
<path d="M0 0 C2 1 2 1 2 1 Z " fill="#67DEFE" transform="translate(271,422)"/>
<path d="M0 0 C2 1 2 1 2 1 Z " fill="#6ADCFD" transform="translate(289,420)"/>
<path d="M0 0 C2 1 2 1 2 1 Z " fill="#67D9FF" transform="translate(547,409)"/>
<path d="" fill="#62DAFD" transform="translate(0,0)"/>
<path d="M0 0 C2 1 2 1 2 1 Z " fill="#5FCDF6" transform="translate(813,377)"/>
<path d="M0 0 C2 1 2 1 2 1 Z " fill="#5ECBF7" transform="translate(811,376)"/>
<path d="" fill="#65D9FE" transform="translate(0,0)"/>
<path d="" fill="#6AE1FF" transform="translate(0,0)"/>
<path d="M0 0 C2 1 2 1 2 1 Z " fill="#6DE2FE" transform="translate(473,320)"/>
<path d="" fill="#6DE1FC" transform="translate(0,0)"/>
<path d="" fill="#64D6F7" transform="translate(0,0)"/>
<path d="M0 0 C2 1 2 1 2 1 Z " fill="#6CDCF6" transform="translate(313,288)"/>
<path d="M0 0 C2 1 2 1 2 1 Z " fill="#6ADFFE" transform="translate(618,285)"/>
<path d="" fill="#6AE0FD" transform="translate(0,0)"/>
<path d="M0 0 C2 1 2 1 2 1 Z " fill="#69E1FE" transform="translate(437,263)"/>
<path d="M0 0 C2 1 2 1 2 1 Z " fill="#6CE0FE" transform="translate(569,259)"/>
<path d="M0 0 C2 1 2 1 2 1 Z " fill="#6DE1FF" transform="translate(545,253)"/>
<path d="M0 0 C2 1 2 1 2 1 Z " fill="#70E0FB" transform="translate(393,219)"/>
<path d="M0 0 C2 1 2 1 2 1 Z " fill="#72DFF8" transform="translate(396,216)"/>
<path d="M0 0 C2 1 2 1 2 1 Z " fill="#6DE0FA" transform="translate(418,208)"/>
<path d="M0 0 C2 1 2 1 2 1 Z " fill="#6BE0F9" transform="translate(442,200)"/>
<path d="" fill="#6DDCF9" transform="translate(0,0)"/>
<path d="M0 0 C2 1 2 1 2 1 Z " fill="#6FDEF6" transform="translate(470,194)"/>
<path d="M0 0 C2 1 2 1 2 1 Z " fill="#6EDDF9" transform="translate(539,193)"/>
<path d="M0 0 C2 1 2 1 2 1 Z " fill="#6CDCF6" transform="translate(525,192)"/>
<path d="" fill="#55ACDC" transform="translate(0,0)"/>
<path d="" fill="#54ADE0" transform="translate(0,0)"/>
<path d="" fill="#53AEE1" transform="translate(0,0)"/>
<path d="" fill="#55BAF2" transform="translate(0,0)"/>
<path d="" fill="#57BDF2" transform="translate(0,0)"/>
<path d="" fill="#51BBF2" transform="translate(0,0)"/>
<path d="" fill="#52B9F3" transform="translate(0,0)"/>
<path d="" fill="#57BCF0" transform="translate(0,0)"/>
<path d="" fill="#54BCF2" transform="translate(0,0)"/>
<path d="" fill="#55BAF2" transform="translate(0,0)"/>
<path d="" fill="#55BCF1" transform="translate(0,0)"/>
<path d="" fill="#55B9F3" transform="translate(0,0)"/>
<path d="" fill="#55B7F0" transform="translate(0,0)"/>
<path d="" fill="#58BDF5" transform="translate(0,0)"/>
<path d="" fill="#57BAF4" transform="translate(0,0)"/>
<path d="" fill="#5ABEF2" transform="translate(0,0)"/>
<path d="" fill="#53B9F4" transform="translate(0,0)"/>
<path d="" fill="#56BDF5" transform="translate(0,0)"/>
<path d="" fill="#58BEF5" transform="translate(0,0)"/>
<path d="" fill="#55BCF4" transform="translate(0,0)"/>
<path d="" fill="#56BAF2" transform="translate(0,0)"/>
<path d="" fill="#55B9F4" transform="translate(0,0)"/>
<path d="" fill="#55BAF2" transform="translate(0,0)"/>
<path d="" fill="#57BDF3" transform="translate(0,0)"/>
<path d="" fill="#58BFF5" transform="translate(0,0)"/>
<path d="" fill="#57BFF8" transform="translate(0,0)"/>
<path d="" fill="#51BBEF" transform="translate(0,0)"/>
<path d="" fill="#57B9F1" transform="translate(0,0)"/>
<path d="" fill="#55BBF1" transform="translate(0,0)"/>
<path d="" fill="#56B8EC" transform="translate(0,0)"/>
<path d="" fill="#54BAF4" transform="translate(0,0)"/>
<path d="" fill="#58B9EF" transform="translate(0,0)"/>
<path d="" fill="#52BAF4" transform="translate(0,0)"/>
<path d="" fill="#53BAF3" transform="translate(0,0)"/>
<path d="" fill="#57B9F4" transform="translate(0,0)"/>
<path d="" fill="#57BBF4" transform="translate(0,0)"/>
<path d="" fill="#54BBF5" transform="translate(0,0)"/>
<path d="" fill="#54C2FB" transform="translate(0,0)"/>
<path d="" fill="#55C1F7" transform="translate(0,0)"/>
<path d="" fill="#4EB9F6" transform="translate(0,0)"/>
<path d="" fill="#56BCF4" transform="translate(0,0)"/>
<path d="" fill="#54BBF3" transform="translate(0,0)"/>
<path d="" fill="#55BEF5" transform="translate(0,0)"/>
<path d="" fill="#5BBBEE" transform="translate(0,0)"/>
<path d="" fill="#57C2F9" transform="translate(0,0)"/>
<path d="" fill="#54BEF3" transform="translate(0,0)"/>
<path d="" fill="#59BDF3" transform="translate(0,0)"/>
<path d="" fill="#56BEF3" transform="translate(0,0)"/>
<path d="" fill="#55BBF8" transform="translate(0,0)"/>
<path d="" fill="#53BDF5" transform="translate(0,0)"/>
<path d="" fill="#58BCF2" transform="translate(0,0)"/>
<path d="" fill="#5AC3FB" transform="translate(0,0)"/>
<path d="" fill="#51BAF0" transform="translate(0,0)"/>
<path d="" fill="#54BAF2" transform="translate(0,0)"/>
<path d="" fill="#58BEF6" transform="translate(0,0)"/>
<path d="" fill="#56BBF2" transform="translate(0,0)"/>
<path d="" fill="#55BDF2" transform="translate(0,0)"/>
<path d="" fill="#53BDF1" transform="translate(0,0)"/>
<path d="" fill="#58BFF7" transform="translate(0,0)"/>
<path d="" fill="#53C1FD" transform="translate(0,0)"/>
<path d="" fill="#55C3FD" transform="translate(0,0)"/>
<path d="" fill="#53C2FD" transform="translate(0,0)"/>
<path d="" fill="#4FC2FE" transform="translate(0,0)"/>
<path d="" fill="#55C3FE" transform="translate(0,0)"/>
<path d="" fill="#57BFF9" transform="translate(0,0)"/>
<path d="" fill="#50C5FE" transform="translate(0,0)"/>
<path d="" fill="#53C2FC" transform="translate(0,0)"/>
<path d="" fill="#52C0FD" transform="translate(0,0)"/>
<path d="" fill="#54C5FB" transform="translate(0,0)"/>
<path d="" fill="#56C1F9" transform="translate(0,0)"/>
<path d="" fill="#57C4FB" transform="translate(0,0)"/>
<path d="" fill="#54C2F8" transform="translate(0,0)"/>
<path d="" fill="#53C5FC" transform="translate(0,0)"/>
<path d="" fill="#56C2F8" transform="translate(0,0)"/>
<path d="" fill="#57C7FE" transform="translate(0,0)"/>
<path d="" fill="#53C3FD" transform="translate(0,0)"/>
<path d="" fill="#56C4FF" transform="translate(0,0)"/>
<path d="" fill="#51C3FC" transform="translate(0,0)"/>
<path d="" fill="#58C1FB" transform="translate(0,0)"/>
<path d="" fill="#56C1F8" transform="translate(0,0)"/>
<path d="" fill="#55C5FD" transform="translate(0,0)"/>
<path d="" fill="#58C4FF" transform="translate(0,0)"/>
<path d="" fill="#50C3FD" transform="translate(0,0)"/>
<path d="" fill="#58C5FB" transform="translate(0,0)"/>
<path d="" fill="#5AC7FA" transform="translate(0,0)"/>
<path d="" fill="#52C5FD" transform="translate(0,0)"/>
<path d="" fill="#57C1F4" transform="translate(0,0)"/>
<path d="" fill="#56C4FB" transform="translate(0,0)"/>
<path d="" fill="#5AC6FF" transform="translate(0,0)"/>
<path d="" fill="#54C6FD" transform="translate(0,0)"/>
<path d="" fill="#5AC8FE" transform="translate(0,0)"/>
<path d="" fill="#5AC1F3" transform="translate(0,0)"/>
<path d="" fill="#53C5FC" transform="translate(0,0)"/>
<path d="" fill="#57C3FB" transform="translate(0,0)"/>
<path d="" fill="#59C3F1" transform="translate(0,0)"/>
<path d="" fill="#59C0F2" transform="translate(0,0)"/>
<path d="" fill="#58C5FC" transform="translate(0,0)"/>
<path d="" fill="#59C3F4" transform="translate(0,0)"/>
<path d="" fill="#59BFF4" transform="translate(0,0)"/>
<path d="" fill="#55C4FC" transform="translate(0,0)"/>
<path d="" fill="#53C7FE" transform="translate(0,0)"/>
<path d="" fill="#56C6FD" transform="translate(0,0)"/>
<path d="" fill="#57C6FA" transform="translate(0,0)"/>
<path d="" fill="#5CC9F9" transform="translate(0,0)"/>
<path d="" fill="#5BC2F2" transform="translate(0,0)"/>
<path d="" fill="#5AC3F2" transform="translate(0,0)"/>
<path d="" fill="#5BC9FD" transform="translate(0,0)"/>
<path d="" fill="#55C4FD" transform="translate(0,0)"/>
<path d="" fill="#5EC4F4" transform="translate(0,0)"/>
<path d="" fill="#5DCAFB" transform="translate(0,0)"/>
<path d="" fill="#5EC7F5" transform="translate(0,0)"/>
<path d="" fill="#58CAFD" transform="translate(0,0)"/>
<path d="" fill="#5DC6F5" transform="translate(0,0)"/>
<path d="" fill="#58C4FD" transform="translate(0,0)"/>
<path d="" fill="#57CBFC" transform="translate(0,0)"/>
<path d="" fill="#54BCF3" transform="translate(0,0)"/>
<path d="" fill="#5DC4F2" transform="translate(0,0)"/>
<path d="" fill="#58C6FD" transform="translate(0,0)"/>
<path d="" fill="#58C7FE" transform="translate(0,0)"/>
<path d="" fill="#59BEF1" transform="translate(0,0)"/>
<path d="" fill="#5CCCFF" transform="translate(0,0)"/>
<path d="" fill="#5DC5F3" transform="translate(0,0)"/>
<path d="" fill="#56BEF6" transform="translate(0,0)"/>
<path d="" fill="#5AC0F1" transform="translate(0,0)"/>
<path d="" fill="#5ACCFE" transform="translate(0,0)"/>
<path d="" fill="#5ACBFF" transform="translate(0,0)"/>
<path d="" fill="#5ECCFD" transform="translate(0,0)"/>
<path d="" fill="#59CDFD" transform="translate(0,0)"/>
<path d="" fill="#5FCCFE" transform="translate(0,0)"/>
<path d="" fill="#5ECEFD" transform="translate(0,0)"/>
<path d="" fill="#5DCCFF" transform="translate(0,0)"/>
<path d="" fill="#5DD0FF" transform="translate(0,0)"/>
<path d="" fill="#60CAF3" transform="translate(0,0)"/>
<path d="" fill="#5ACFFE" transform="translate(0,0)"/>
<path d="" fill="#5ACAFF" transform="translate(0,0)"/>
<path d="" fill="#5ECEFF" transform="translate(0,0)"/>
<path d="" fill="#5DCFFC" transform="translate(0,0)"/>
<path d="" fill="#5CCDFD" transform="translate(0,0)"/>
<path d="" fill="#5ECFFF" transform="translate(0,0)"/>
<path d="" fill="#62C9F6" transform="translate(0,0)"/>
<path d="" fill="#64C8F2" transform="translate(0,0)"/>
<path d="" fill="#61D0FF" transform="translate(0,0)"/>
<path d="" fill="#61D2FF" transform="translate(0,0)"/>
<path d="" fill="#64CAF2" transform="translate(0,0)"/>
<path d="" fill="#5BC3F6" transform="translate(0,0)"/>
<path d="" fill="#59CBFA" transform="translate(0,0)"/>
<path d="" fill="#59CAF8" transform="translate(0,0)"/>
<path d="" fill="#58C9FC" transform="translate(0,0)"/>
<path d="" fill="#58C9FA" transform="translate(0,0)"/>
<path d="" fill="#58C9FB" transform="translate(0,0)"/>
<path d="" fill="#59CAFC" transform="translate(0,0)"/>
<path d="" fill="#56CAFA" transform="translate(0,0)"/>
<path d="" fill="#58CBFA" transform="translate(0,0)"/>
<path d="" fill="#57C8FB" transform="translate(0,0)"/>
<path d="" fill="#59C9FB" transform="translate(0,0)"/>
<path d="" fill="#5ACCFC" transform="translate(0,0)"/>
<path d="" fill="#57C8FB" transform="translate(0,0)"/>
<path d="" fill="#5AC8FB" transform="translate(0,0)"/>
<path d="" fill="#59C2F5" transform="translate(0,0)"/>
<path d="" fill="#58C8F8" transform="translate(0,0)"/>
<path d="" fill="#5ACBFE" transform="translate(0,0)"/>
<path d="" fill="#5BC9FB" transform="translate(0,0)"/>
<path d="" fill="#62CBF4" transform="translate(0,0)"/>
<path d="" fill="#59C9FD" transform="translate(0,0)"/>
<path d="" fill="#5CD0FF" transform="translate(0,0)"/>
<path d="" fill="#60CFFF" transform="translate(0,0)"/>
<path d="" fill="#60D2FC" transform="translate(0,0)"/>
<path d="" fill="#57CBFB" transform="translate(0,0)"/>
<path d="" fill="#5FCAF5" transform="translate(0,0)"/>
<path d="" fill="#62D2FC" transform="translate(0,0)"/>
<path d="" fill="#58C2F5" transform="translate(0,0)"/>
<path d="" fill="#63D4FB" transform="translate(0,0)"/>
<path d="" fill="#64CBF4" transform="translate(0,0)"/>
<path d="" fill="#65CCF2" transform="translate(0,0)"/>
<path d="" fill="#5FCCFD" transform="translate(0,0)"/>
<path d="" fill="#61CCF6" transform="translate(0,0)"/>
<path d="" fill="#5BC9FF" transform="translate(0,0)"/>
<path d="" fill="#63D5FC" transform="translate(0,0)"/>
<path d="" fill="#64D5FC" transform="translate(0,0)"/>
<path d="" fill="#63D1FF" transform="translate(0,0)"/>
<path d="" fill="#62CBF4" transform="translate(0,0)"/>
<path d="" fill="#57C8FC" transform="translate(0,0)"/>
<path d="" fill="#5AC9FC" transform="translate(0,0)"/>
<path d="" fill="#5CCAFD" transform="translate(0,0)"/>
<path d="" fill="#5DCFFD" transform="translate(0,0)"/>
<path d="" fill="#64D6FF" transform="translate(0,0)"/>
<path d="" fill="#5ACAFB" transform="translate(0,0)"/>
<path d="" fill="#62D3FB" transform="translate(0,0)"/>
<path d="" fill="#5AC4F6" transform="translate(0,0)"/>
<path d="" fill="#60CEFB" transform="translate(0,0)"/>
<path d="" fill="#66D5FD" transform="translate(0,0)"/>
<path d="" fill="#5BC8FE" transform="translate(0,0)"/>
<path d="" fill="#67CEF5" transform="translate(0,0)"/>
<path d="" fill="#60D1FF" transform="translate(0,0)"/>
<path d="" fill="#5CCFFD" transform="translate(0,0)"/>
<path d="" fill="#65D6FD" transform="translate(0,0)"/>
<path d="" fill="#5DCAFE" transform="translate(0,0)"/>
<path d="" fill="#5EC9FB" transform="translate(0,0)"/>
<path d="" fill="#5ECFFC" transform="translate(0,0)"/>
<path d="" fill="#67D5F9" transform="translate(0,0)"/>
<path d="" fill="#69DAFC" transform="translate(0,0)"/>
<path d="" fill="#62D5FE" transform="translate(0,0)"/>
<path d="" fill="#67D7FD" transform="translate(0,0)"/>
<path d="" fill="#5BC5F4" transform="translate(0,0)"/>
<path d="" fill="#69D6FB" transform="translate(0,0)"/>
<path d="" fill="#68D6FC" transform="translate(0,0)"/>
<path d="" fill="#68D6FD" transform="translate(0,0)"/>
<path d="" fill="#61CFFC" transform="translate(0,0)"/>
<path d="" fill="#5FD2FE" transform="translate(0,0)"/>
<path d="" fill="#62D2FD" transform="translate(0,0)"/>
<path d="" fill="#5FD0FD" transform="translate(0,0)"/>
<path d="" fill="#62D3FB" transform="translate(0,0)"/>
<path d="" fill="#67D6FB" transform="translate(0,0)"/>
<path d="" fill="#69D8FB" transform="translate(0,0)"/>
<path d="" fill="#61D3FC" transform="translate(0,0)"/>
<path d="" fill="#60D4FC" transform="translate(0,0)"/>
<path d="" fill="#5FD2FF" transform="translate(0,0)"/>
<path d="" fill="#5ED3FD" transform="translate(0,0)"/>
<path d="" fill="#60D1FE" transform="translate(0,0)"/>
<path d="" fill="#64D5FD" transform="translate(0,0)"/>
<path d="" fill="#5DC6F6" transform="translate(0,0)"/>
<path d="" fill="#5FC3F4" transform="translate(0,0)"/>
<path d="" fill="#5BCBFE" transform="translate(0,0)"/>
<path d="" fill="#5ACCFF" transform="translate(0,0)"/>
<path d="" fill="#5ACCFF" transform="translate(0,0)"/>
<path d="" fill="#5BCDFF" transform="translate(0,0)"/>
<path d="" fill="#62D2FC" transform="translate(0,0)"/>
<path d="" fill="#5DC2F7" transform="translate(0,0)"/>
<path d="" fill="#5DCBFE" transform="translate(0,0)"/>
<path d="" fill="#69D2F6" transform="translate(0,0)"/>
<path d="" fill="#63D5FF" transform="translate(0,0)"/>
<path d="" fill="#68D1F2" transform="translate(0,0)"/>
<path d="" fill="#5ECCFB" transform="translate(0,0)"/>
<path d="" fill="#66DBFE" transform="translate(0,0)"/>
<path d="" fill="#5BCFFF" transform="translate(0,0)"/>
<path d="" fill="#5FCEFD" transform="translate(0,0)"/>
<path d="" fill="#64D7FC" transform="translate(0,0)"/>
<path d="" fill="#5FCAFF" transform="translate(0,0)"/>
<path d="" fill="#68D3F5" transform="translate(0,0)"/>
<path d="" fill="#6AD9FC" transform="translate(0,0)"/>
<path d="" fill="#64D8FE" transform="translate(0,0)"/>
<path d="" fill="#58C4F2" transform="translate(0,0)"/>
<path d="" fill="#5BCDF9" transform="translate(0,0)"/>
<path d="" fill="#65D6FC" transform="translate(0,0)"/>
<path d="" fill="#66DCFD" transform="translate(0,0)"/>
<path d="" fill="#63D5FE" transform="translate(0,0)"/>
<path d="" fill="#5ECFFE" transform="translate(0,0)"/>
<path d="" fill="#61D5FD" transform="translate(0,0)"/>
<path d="" fill="#5CC7F3" transform="translate(0,0)"/>
<path d="" fill="#67D9FD" transform="translate(0,0)"/>
<path d="" fill="#60D0FC" transform="translate(0,0)"/>
<path d="" fill="#67D2F8" transform="translate(0,0)"/>
<path d="" fill="#65D0F4" transform="translate(0,0)"/>
<path d="" fill="#5FD8FD" transform="translate(0,0)"/>
<path d="" fill="#62D6FB" transform="translate(0,0)"/>
<path d="" fill="#5DCEFF" transform="translate(0,0)"/>
<path d="" fill="#5FCCFF" transform="translate(0,0)"/>
<path d="" fill="#63D6FF" transform="translate(0,0)"/>
<path d="" fill="#69CEF0" transform="translate(0,0)"/>
<path d="" fill="#60C4F2" transform="translate(0,0)"/>
<path d="" fill="#6BD3F1" transform="translate(0,0)"/>
<path d="" fill="#5FD1FF" transform="translate(0,0)"/>
<path d="" fill="#61CFFE" transform="translate(0,0)"/>
<path d="" fill="#5CC8F6" transform="translate(0,0)"/>
<path d="" fill="#6AD8F5" transform="translate(0,0)"/>
<path d="" fill="#60C5F0" transform="translate(0,0)"/>
<path d="" fill="#5ACCFA" transform="translate(0,0)"/>
<path d="" fill="#5ECEFC" transform="translate(0,0)"/>
<path d="" fill="#60D1FE" transform="translate(0,0)"/>
<path d="" fill="#66D6F6" transform="translate(0,0)"/>
<path d="" fill="#6AD9FC" transform="translate(0,0)"/>
<path d="" fill="#5DD0FB" transform="translate(0,0)"/>
<path d="" fill="#66D8FF" transform="translate(0,0)"/>
<path d="" fill="#65DCFB" transform="translate(0,0)"/>
<path d="" fill="#5BCEFB" transform="translate(0,0)"/>
<path d="" fill="#5DC9F2" transform="translate(0,0)"/>
<path d="" fill="#5DD1FC" transform="translate(0,0)"/>
<path d="" fill="#5DC7F4" transform="translate(0,0)"/>
<path d="" fill="#61D0FE" transform="translate(0,0)"/>
<path d="" fill="#65D8FF" transform="translate(0,0)"/>
<path d="" fill="#5EC7F4" transform="translate(0,0)"/>
<path d="" fill="#60D0FB" transform="translate(0,0)"/>
<path d="" fill="#6ADAFB" transform="translate(0,0)"/>
<path d="" fill="#66DDFF" transform="translate(0,0)"/>
<path d="" fill="#67DDFF" transform="translate(0,0)"/>
<path d="" fill="#69E0FF" transform="translate(0,0)"/>
<path d="" fill="#5ED1FB" transform="translate(0,0)"/>
<path d="" fill="#68DAFE" transform="translate(0,0)"/>
<path d="" fill="#67DCFD" transform="translate(0,0)"/>
<path d="" fill="#62D3FC" transform="translate(0,0)"/>
<path d="" fill="#60D5FC" transform="translate(0,0)"/>
<path d="" fill="#63D4FF" transform="translate(0,0)"/>
<path d="" fill="#69DDFC" transform="translate(0,0)"/>
<path d="" fill="#64D9FE" transform="translate(0,0)"/>
<path d="" fill="#64D4F5" transform="translate(0,0)"/>
<path d="" fill="#60C7F5" transform="translate(0,0)"/>
<path d="" fill="#66D5F8" transform="translate(0,0)"/>
<path d="" fill="#60C6F4" transform="translate(0,0)"/>
<path d="" fill="#65D8FF" transform="translate(0,0)"/>
<path d="" fill="#65D9FF" transform="translate(0,0)"/>
<path d="" fill="#61C9F4" transform="translate(0,0)"/>
<path d="" fill="#6BD8F7" transform="translate(0,0)"/>
<path d="" fill="#65DBFB" transform="translate(0,0)"/>
<path d="" fill="#66D9FE" transform="translate(0,0)"/>
<path d="" fill="#6ED8F8" transform="translate(0,0)"/>
<path d="" fill="#63C4EE" transform="translate(0,0)"/>
<path d="" fill="#60CBF5" transform="translate(0,0)"/>
<path d="" fill="#66DBFF" transform="translate(0,0)"/>
<path d="" fill="#66DAFF" transform="translate(0,0)"/>
<path d="" fill="#6DD8F7" transform="translate(0,0)"/>
<path d="" fill="#61CBF7" transform="translate(0,0)"/>
<path d="" fill="#64D7FD" transform="translate(0,0)"/>
<path d="" fill="#60CAF9" transform="translate(0,0)"/>
<path d="" fill="#6ED6F7" transform="translate(0,0)"/>
<path d="" fill="#6CDFFE" transform="translate(0,0)"/>
<path d="" fill="#6BDAF6" transform="translate(0,0)"/>
<path d="" fill="#68D8F7" transform="translate(0,0)"/>
<path d="" fill="#5CCAF7" transform="translate(0,0)"/>
<path d="" fill="#6BDFFE" transform="translate(0,0)"/>
<path d="" fill="#6BD9F6" transform="translate(0,0)"/>
<path d="" fill="#69D7F7" transform="translate(0,0)"/>
<path d="" fill="#66DCFD" transform="translate(0,0)"/>
<path d="" fill="#66DDFF" transform="translate(0,0)"/>
<path d="" fill="#67D9FF" transform="translate(0,0)"/>
<path d="" fill="#6BE0FF" transform="translate(0,0)"/>
<path d="" fill="#66D8FE" transform="translate(0,0)"/>
<path d="" fill="#67D9FF" transform="translate(0,0)"/>
<path d="" fill="#66DDFF" transform="translate(0,0)"/>
<path d="" fill="#6ADCF8" transform="translate(0,0)"/>
<path d="" fill="#67DEFB" transform="translate(0,0)"/>
<path d="" fill="#6ADAFF" transform="translate(0,0)"/>
<path d="" fill="#6BE2FF" transform="translate(0,0)"/>
<path d="" fill="#6CDDFD" transform="translate(0,0)"/>
<path d="" fill="#65D7FF" transform="translate(0,0)"/>
<path d="" fill="#6BE0FE" transform="translate(0,0)"/>
<path d="" fill="#6FE1FE" transform="translate(0,0)"/>
<path d="" fill="#6EDFFE" transform="translate(0,0)"/>
<path d="" fill="#67D8FF" transform="translate(0,0)"/>
<path d="" fill="#69D9FC" transform="translate(0,0)"/>
<path d="" fill="#6BD9FB" transform="translate(0,0)"/>
<path d="" fill="#6DE1FD" transform="translate(0,0)"/>
<path d="" fill="#64D5FF" transform="translate(0,0)"/>
<path d="" fill="#69DFFF" transform="translate(0,0)"/>
<path d="" fill="#6AE1FF" transform="translate(0,0)"/>
<path d="" fill="#63D9F9" transform="translate(0,0)"/>
<path d="" fill="#61D9FD" transform="translate(0,0)"/>
<path d="" fill="#65D6FD" transform="translate(0,0)"/>
<path d="" fill="#67D5FA" transform="translate(0,0)"/>
<path d="" fill="#69DFFE" transform="translate(0,0)"/>
<path d="" fill="#68DDFF" transform="translate(0,0)"/>
<path d="" fill="#66DAFE" transform="translate(0,0)"/>
<path d="" fill="#69DBFC" transform="translate(0,0)"/>
<path d="" fill="#70DDFA" transform="translate(0,0)"/>
<path d="" fill="#6BDDFD" transform="translate(0,0)"/>
<path d="" fill="#6EDFFA" transform="translate(0,0)"/>
<path d="" fill="#64D5F7" transform="translate(0,0)"/>
<path d="" fill="#6CDBFE" transform="translate(0,0)"/>
<path d="" fill="#6ADFFC" transform="translate(0,0)"/>
<path d="" fill="#67D7FA" transform="translate(0,0)"/>
<path d="" fill="#67DFFE" transform="translate(0,0)"/>
<path d="" fill="#6EDCFA" transform="translate(0,0)"/>
<path d="" fill="#67DDFF" transform="translate(0,0)"/>
<path d="" fill="#6CE1FD" transform="translate(0,0)"/>
<path d="" fill="#6BE0FE" transform="translate(0,0)"/>
<path d="" fill="#6FE2FE" transform="translate(0,0)"/>
<path d="" fill="#67DBFF" transform="translate(0,0)"/>
<path d="" fill="#6BE3FF" transform="translate(0,0)"/>
<path d="" fill="#67DBFE" transform="translate(0,0)"/>
<path d="" fill="#6DE2FE" transform="translate(0,0)"/>
<path d="" fill="#6DDEFD" transform="translate(0,0)"/>
<path d="" fill="#67DBFD" transform="translate(0,0)"/>
<path d="" fill="#71E1FF" transform="translate(0,0)"/>
<path d="" fill="#6DE0FE" transform="translate(0,0)"/>
<path d="" fill="#6FE2FF" transform="translate(0,0)"/>
<path d="" fill="#6DDEFA" transform="translate(0,0)"/>
<path d="" fill="#6FE1FF" transform="translate(0,0)"/>
<path d="" fill="#6CDFFE" transform="translate(0,0)"/>
<path d="" fill="#65D7F9" transform="translate(0,0)"/>
<path d="" fill="#68DCFF" transform="translate(0,0)"/>
<path d="" fill="#69DEFD" transform="translate(0,0)"/>
<path d="" fill="#69DEFD" transform="translate(0,0)"/>
<path d="" fill="#6BE1FD" transform="translate(0,0)"/>
<path d="" fill="#6EE4FF" transform="translate(0,0)"/>
<path d="" fill="#6CDFF7" transform="translate(0,0)"/>
<path d="" fill="#6CDFFF" transform="translate(0,0)"/>
<path d="" fill="#6BDDFB" transform="translate(0,0)"/>
<path d="" fill="#71DBF7" transform="translate(0,0)"/>
<path d="" fill="#6EDCF6" transform="translate(0,0)"/>
<path d="" fill="#69DDFF" transform="translate(0,0)"/>
<path d="" fill="#6ADEFF" transform="translate(0,0)"/>
<path d="" fill="#6DE2FE" transform="translate(0,0)"/>
<path d="" fill="#66D7F6" transform="translate(0,0)"/>
<path d="" fill="#6BDEFF" transform="translate(0,0)"/>
<path d="" fill="#71E0FC" transform="translate(0,0)"/>
<path d="" fill="#68D7F7" transform="translate(0,0)"/>
<path d="" fill="#6DD8F7" transform="translate(0,0)"/>
<path d="" fill="#6DDDF6" transform="translate(0,0)"/>
<path d="" fill="#70D9F2" transform="translate(0,0)"/>
<path d="" fill="#6CE0FE" transform="translate(0,0)"/>
<path d="" fill="#69D7F8" transform="translate(0,0)"/>
<path d="" fill="#6DE4FF" transform="translate(0,0)"/>
<path d="" fill="#69D8F7" transform="translate(0,0)"/>
<path d="" fill="#6EDCF9" transform="translate(0,0)"/>
<path d="" fill="#6EDAF7" transform="translate(0,0)"/>
<path d="" fill="#6CE2FE" transform="translate(0,0)"/>
<path d="" fill="#69E2FC" transform="translate(0,0)"/>
<path d="" fill="#6BDDFE" transform="translate(0,0)"/>
<path d="" fill="#68E1FC" transform="translate(0,0)"/>
<path d="" fill="#6FE3FF" transform="translate(0,0)"/>
<path d="" fill="#6AD8F7" transform="translate(0,0)"/>
<path d="" fill="#70E1FE" transform="translate(0,0)"/>
<path d="" fill="#74DDF8" transform="translate(0,0)"/>
<path d="" fill="#6FDFFD" transform="translate(0,0)"/>
<path d="" fill="#6BD6F5" transform="translate(0,0)"/>
<path d="" fill="#6AE2FF" transform="translate(0,0)"/>
<path d="" fill="#6CE2FF" transform="translate(0,0)"/>
<path d="" fill="#6CE0F5" transform="translate(0,0)"/>
<path d="" fill="#67D9F8" transform="translate(0,0)"/>
<path d="" fill="#6AE3FF" transform="translate(0,0)"/>
<path d="" fill="#70DCFB" transform="translate(0,0)"/>
<path d="" fill="#72DEF8" transform="translate(0,0)"/>
<path d="" fill="#6ADCF9" transform="translate(0,0)"/>
<path d="" fill="#71E0FD" transform="translate(0,0)"/>
<path d="" fill="#6FDCF7" transform="translate(0,0)"/>
<path d="" fill="#68E2FC" transform="translate(0,0)"/>
<path d="" fill="#6DE1FE" transform="translate(0,0)"/>
<path d="" fill="#6FE4FE" transform="translate(0,0)"/>
<path d="" fill="#6FE4FE" transform="translate(0,0)"/>
<path d="" fill="#6AE0FF" transform="translate(0,0)"/>
<path d="" fill="#6CE2FD" transform="translate(0,0)"/>
<path d="" fill="#6DE4FF" transform="translate(0,0)"/>
<path d="" fill="#6CE1FE" transform="translate(0,0)"/>
<path d="" fill="#71DFF8" transform="translate(0,0)"/>
<path d="" fill="#6FE4FF" transform="translate(0,0)"/>
<path d="" fill="#6EE4FF" transform="translate(0,0)"/>
<path d="" fill="#6FE3FF" transform="translate(0,0)"/>
<path d="" fill="#72D9F5" transform="translate(0,0)"/>
<path d="" fill="#68D7F5" transform="translate(0,0)"/>
<path d="" fill="#68D9F8" transform="translate(0,0)"/>
<path d="" fill="#6ED5F4" transform="translate(0,0)"/>
<path d="" fill="#6AD7F9" transform="translate(0,0)"/>
<path d="" fill="#6ADAF6" transform="translate(0,0)"/>
<path d="" fill="#6FD7F5" transform="translate(0,0)"/>
<path d="" fill="#70D7F6" transform="translate(0,0)"/>
<path d="" fill="#71D8F3" transform="translate(0,0)"/>
<path d="" fill="#72DFF9" transform="translate(0,0)"/>
<path d="" fill="#70DDF8" transform="translate(0,0)"/>
<path d="" fill="#6AD9F6" transform="translate(0,0)"/>
<path d="" fill="#74DEFA" transform="translate(0,0)"/>
<path d="" fill="#6CDEF9" transform="translate(0,0)"/>
<path d="" fill="#67D8F5" transform="translate(0,0)"/>
<path d="" fill="#71DCF8" transform="translate(0,0)"/>
<path d="" fill="#6FDAF7" transform="translate(0,0)"/>
<path d="" fill="#73DFF6" transform="translate(0,0)"/>
<path d="" fill="#73E0F9" transform="translate(0,0)"/>
<path d="" fill="#70DEF9" transform="translate(0,0)"/>
<path d="" fill="#70DDF7" transform="translate(0,0)"/>
<path d="" fill="#68D7F3" transform="translate(0,0)"/>
<path d="" fill="#6FDFF4" transform="translate(0,0)"/>
<path d="" fill="#6FDDFB" transform="translate(0,0)"/>
<path d="" fill="#70E0F8" transform="translate(0,0)"/>
<path d="" fill="#72E0F9" transform="translate(0,0)"/>
<path d="" fill="#6CD9F8" transform="translate(0,0)"/>
<path d="" fill="#6FDDF8" transform="translate(0,0)"/>
<path d="" fill="#6FDDF5" transform="translate(0,0)"/>
<path d="" fill="#6DDDF7" transform="translate(0,0)"/>
<path d="" fill="#6DDEF9" transform="translate(0,0)"/>
<path d="" fill="#70DAF3" transform="translate(0,0)"/>
</svg>
